<svg width="648" height="565" viewBox="0 0 648 565" fill="none" xmlns="http://www.w3.org/2000/svg">
<rect x="128" y="54" width="159" height="302" rx="8" fill="#F2F2F2"/>
<path fill-rule="evenodd" clip-rule="evenodd" d="M207 337C215.284 337 222 330.284 222 322C222 313.716 215.284 307 207 307C198.716 307 192 313.716 192 322C192 330.284 198.716 337 207 337Z" fill="white"/>
<path fill-rule="evenodd" clip-rule="evenodd" d="M194 74C195.105 74 196 73.1046 196 72C196 70.8954 195.105 70 194 70C192.895 70 192 70.8954 192 72C192 73.1046 192.895 74 194 74Z" fill="white"/>
<rect x="201" y="70" width="21" height="4" rx="2" fill="white"/>
<rect x="142" y="82" width="131" height="54" rx="4" fill="white"/>
<g clip-path="url(#clip0)">
<rect x="181" y="98.2" width="73" height="8.1" rx="3" fill="#DDE3E9"/>
<rect x="181" y="111.7" width="49" height="8.1" rx="3" fill="#DDE3E9"/>
</g>
<path fill-rule="evenodd" clip-rule="evenodd" d="M163 121C169.627 121 175 115.627 175 109C175 102.373 169.627 97 163 97C156.373 97 151 102.373 151 109C151 115.627 156.373 121 163 121Z" fill="#C5CFD6"/>
<rect x="142" y="144" width="131" height="42" rx="4" fill="white"/>
<g clip-path="url(#clip1)">
<rect x="181" y="156.6" width="73" height="6.3" rx="3" fill="#DDE3E9"/>
<rect x="181" y="167.1" width="49" height="6.3" rx="3" fill="#DDE3E9"/>
</g>
<path fill-rule="evenodd" clip-rule="evenodd" d="M163 177C169.627 177 175 171.627 175 165C175 158.373 169.627 153 163 153C156.373 153 151 158.373 151 165C151 171.627 156.373 177 163 177Z" fill="#C5CFD6"/>
<rect x="142" y="194" width="131" height="42" rx="4" fill="white"/>
<g clip-path="url(#clip2)">
<rect x="181" y="206.6" width="73" height="6.3" rx="3" fill="#DDE3E9"/>
<rect x="181" y="217.1" width="49" height="6.3" rx="3" fill="#DDE3E9"/>
</g>
<path fill-rule="evenodd" clip-rule="evenodd" d="M163 227C169.627 227 175 221.627 175 215C175 208.373 169.627 203 163 203C156.373 203 151 208.373 151 215C151 221.627 156.373 227 163 227Z" fill="#AFB9C5"/>
<rect x="142" y="244" width="131" height="42" rx="4" fill="white"/>
<g clip-path="url(#clip3)">
<rect x="181" y="256.6" width="73" height="6.3" rx="3" fill="#DDE3E9"/>
<rect x="181" y="267.1" width="49" height="6.3" rx="3" fill="#DDE3E9"/>
</g>
<path fill-rule="evenodd" clip-rule="evenodd" d="M163 277C169.627 277 175 271.627 175 265C175 258.373 169.627 253 163 253C156.373 253 151 258.373 151 265C151 271.627 156.373 277 163 277Z" fill="#C5CFD6"/>
<rect x="194" y="80" width="159" height="302" rx="8" fill="#DDE3E9"/>
<path fill-rule="evenodd" clip-rule="evenodd" d="M273 363C281.284 363 288 356.284 288 348C288 339.716 281.284 333 273 333C264.716 333 258 339.716 258 348C258 356.284 264.716 363 273 363Z" fill="white"/>
<path fill-rule="evenodd" clip-rule="evenodd" d="M260 100C261.105 100 262 99.1046 262 98C262 96.8954 261.105 96 260 96C258.895 96 258 96.8954 258 98C258 99.1046 258.895 100 260 100Z" fill="white"/>
<rect x="267" y="96" width="21" height="4" rx="2" fill="white"/>
<rect x="208" y="108" width="131" height="54" rx="4" fill="white"/>
<g clip-path="url(#clip4)">
<rect x="217" y="124.2" width="73" height="8.1" rx="3" fill="#DDE3E9"/>
<rect x="217" y="137.7" width="49" height="8.1" rx="3" fill="#DDE3E9"/>
</g>
<path fill-rule="evenodd" clip-rule="evenodd" d="M325 142C328.866 142 332 138.866 332 135C332 131.134 328.866 128 325 128C321.134 128 318 131.134 318 135C318 138.866 321.134 142 325 142Z" fill="#DDE3E9"/>
<path fill-rule="evenodd" clip-rule="evenodd" d="M325 138C326.657 138 328 136.657 328 135C328 133.343 326.657 132 325 132C323.343 132 322 133.343 322 135C322 136.657 323.343 138 325 138Z" fill="#F2F2F2"/>
<rect x="208" y="170" width="131" height="42" rx="4" fill="white"/>
<g clip-path="url(#clip5)">
<rect x="247" y="182.6" width="73" height="6.3" rx="3" fill="#DDE3E9"/>
<rect x="247" y="193.1" width="49" height="6.3" rx="3" fill="#DDE3E9"/>
</g>
<path fill-rule="evenodd" clip-rule="evenodd" d="M229 203C235.627 203 241 197.627 241 191C241 184.373 235.627 179 229 179C222.373 179 217 184.373 217 191C217 197.627 222.373 203 229 203Z" fill="#C5CFD6"/>
<rect x="208" y="220" width="131" height="42" rx="4" fill="white"/>
<g clip-path="url(#clip6)">
<rect x="217" y="232.6" width="73" height="6.3" rx="3" fill="#DDE3E9"/>
<rect x="217" y="243.1" width="49" height="6.3" rx="3" fill="#AFB9C5"/>
</g>
<path fill-rule="evenodd" clip-rule="evenodd" d="M325 248C328.866 248 332 244.866 332 241C332 237.134 328.866 234 325 234C321.134 234 318 237.134 318 241C318 244.866 321.134 248 325 248Z" fill="#DDE3E9"/>
<path fill-rule="evenodd" clip-rule="evenodd" d="M325 244C326.657 244 328 242.657 328 241C328 239.343 326.657 238 325 238C323.343 238 322 239.343 322 241C322 242.657 323.343 244 325 244Z" fill="#F2F2F2"/>
<rect x="208" y="270" width="131" height="42" rx="4" fill="white"/>
<g clip-path="url(#clip7)">
<rect x="247" y="282.6" width="73" height="6.3" rx="3" fill="#DDE3E9"/>
<rect x="247" y="293.1" width="49" height="6.3" rx="3" fill="#DDE3E9"/>
</g>
<path fill-rule="evenodd" clip-rule="evenodd" d="M229 303C235.627 303 241 297.627 241 291C241 284.373 235.627 279 229 279C222.373 279 217 284.373 217 291C217 297.627 222.373 303 229 303Z" fill="#C5CFD6"/>
<rect x="260" y="105" width="335" height="346" rx="8" fill="#F2F2F2"/>
<rect x="509" y="148" width="70" height="81" rx="8" fill="white"/>
<path fill-rule="evenodd" clip-rule="evenodd" d="M544 195C552.837 195 560 187.837 560 179C560 170.163 552.837 163 544 163C535.163 163 528 170.163 528 179C528 187.837 535.163 195 544 195Z" fill="#DDE3E9"/>
<rect x="519" y="199" width="50" height="6" rx="3" fill="#DDE3E9"/>
<rect x="527" y="209" width="34" height="6" rx="3" fill="#DDE3E9"/>
<path d="M260 113C260 108.582 263.582 105 268 105H587C591.418 105 595 108.582 595 113V132H260V113Z" fill="#C5CFD6"/>
<path fill-rule="evenodd" clip-rule="evenodd" d="M273 123C275.209 123 277 121.209 277 119C277 116.791 275.209 115 273 115C270.791 115 269 116.791 269 119C269 121.209 270.791 123 273 123Z" fill="#F2F2F2"/>
<path fill-rule="evenodd" clip-rule="evenodd" d="M285 123C287.209 123 289 121.209 289 119C289 116.791 287.209 115 285 115C282.791 115 281 116.791 281 119C281 121.209 282.791 123 285 123Z" fill="#F2F2F2"/>
<path fill-rule="evenodd" clip-rule="evenodd" d="M297 123C299.209 123 301 121.209 301 119C301 116.791 299.209 115 297 115C294.791 115 293 116.791 293 119C293 121.209 294.791 123 297 123Z" fill="#F2F2F2"/>
<rect x="509" y="237" width="70" height="194" rx="8" fill="white"/>
<rect x="527" y="255" width="34" height="26" rx="4" fill="#DDE3E9"/>
<rect x="527" y="289" width="34" height="25" rx="4" fill="#AFB9C5"/>
<rect x="527" y="322" width="34" height="25" rx="4" fill="#DDE3E9"/>
<rect x="527" y="388" width="34" height="25" rx="4" fill="#DDE3E9"/>
<rect x="527" y="355" width="34" height="25" rx="4" fill="#C5CFD6"/>
<rect x="276" y="149" width="225" height="47" rx="4" fill="white"/>
<g clip-path="url(#clip8)">
<rect x="285" y="163.1" width="167" height="7.05" rx="3" fill="#DDE3E9"/>
<rect x="285" y="174.85" width="112.096" height="7.05" rx="3" fill="#DDE3E9"/>
</g>
<path fill-rule="evenodd" clip-rule="evenodd" d="M476.954 179.5C480.82 179.5 483.954 176.366 483.954 172.5C483.954 168.634 480.82 165.5 476.954 165.5C473.088 165.5 469.954 168.634 469.954 172.5C469.954 176.366 473.088 179.5 476.954 179.5Z" fill="#DDE3E9"/>
<path fill-rule="evenodd" clip-rule="evenodd" d="M476.954 175.5C478.611 175.5 479.954 174.157 479.954 172.5C479.954 170.843 478.611 169.5 476.954 169.5C475.297 169.5 473.954 170.843 473.954 172.5C473.954 174.157 475.297 175.5 476.954 175.5Z" fill="#F2F2F2"/>
<rect x="276" y="204" width="225" height="39" rx="4" fill="white"/>
<g clip-path="url(#clip9)">
<rect x="285" y="215.7" width="167" height="5.85" rx="2.925" fill="#DDE3E9"/>
<rect x="285" y="225.45" width="112.096" height="5.85" rx="2.925" fill="#DDE3E9"/>
</g>
<path fill-rule="evenodd" clip-rule="evenodd" d="M476.954 230.5C480.82 230.5 483.954 227.366 483.954 223.5C483.954 219.634 480.82 216.5 476.954 216.5C473.088 216.5 469.954 219.634 469.954 223.5C469.954 227.366 473.088 230.5 476.954 230.5Z" fill="#DDE3E9"/>
<path fill-rule="evenodd" clip-rule="evenodd" d="M476.954 226.5C478.611 226.5 479.954 225.157 479.954 223.5C479.954 221.843 478.611 220.5 476.954 220.5C475.297 220.5 473.954 221.843 473.954 223.5C473.954 225.157 475.297 226.5 476.954 226.5Z" fill="#F2F2F2"/>
<rect x="276" y="251" width="225" height="39" rx="4" fill="white"/>
<g clip-path="url(#clip10)">
<rect x="285" y="262.7" width="167" height="5.85" rx="2.925" fill="#DDE3E9"/>
<rect x="285" y="272.45" width="112.096" height="5.85" rx="2.925" fill="#DDE3E9"/>
</g>
<path fill-rule="evenodd" clip-rule="evenodd" d="M476.954 277.5C480.82 277.5 483.954 274.366 483.954 270.5C483.954 266.634 480.82 263.5 476.954 263.5C473.088 263.5 469.954 266.634 469.954 270.5C469.954 274.366 473.088 277.5 476.954 277.5Z" fill="#DDE3E9"/>
<path fill-rule="evenodd" clip-rule="evenodd" d="M476.954 273.5C478.611 273.5 479.954 272.157 479.954 270.5C479.954 268.843 478.611 267.5 476.954 267.5C475.297 267.5 473.954 268.843 473.954 270.5C473.954 272.157 475.297 273.5 476.954 273.5Z" fill="#AFB9C5"/>
<rect x="276" y="392" width="225" height="39" rx="4" fill="white"/>
<g clip-path="url(#clip11)">
<rect x="285" y="403.7" width="167" height="5.85" rx="2.925" fill="#DDE3E9"/>
<rect x="285" y="413.45" width="112.096" height="5.85" rx="2.925" fill="#DDE3E9"/>
</g>
<path fill-rule="evenodd" clip-rule="evenodd" d="M476.954 418.5C480.82 418.5 483.954 415.366 483.954 411.5C483.954 407.634 480.82 404.5 476.954 404.5C473.088 404.5 469.954 407.634 469.954 411.5C469.954 415.366 473.088 418.5 476.954 418.5Z" fill="#DDE3E9"/>
<path fill-rule="evenodd" clip-rule="evenodd" d="M476.954 414.5C478.611 414.5 479.954 413.157 479.954 411.5C479.954 409.843 478.611 408.5 476.954 408.5C475.297 408.5 473.954 409.843 473.954 411.5C473.954 413.157 475.297 414.5 476.954 414.5Z" fill="#F2F2F2"/>
<rect x="276" y="345" width="225" height="39" rx="4" fill="white"/>
<g clip-path="url(#clip12)">
<rect x="285" y="356.7" width="167" height="5.85" rx="2.925" fill="#DDE3E9"/>
<rect x="285" y="366.45" width="112.096" height="5.85" rx="2.925" fill="#DDE3E9"/>
</g>
<path fill-rule="evenodd" clip-rule="evenodd" d="M476.954 371.5C480.82 371.5 483.954 368.366 483.954 364.5C483.954 360.634 480.82 357.5 476.954 357.5C473.088 357.5 469.954 360.634 469.954 364.5C469.954 368.366 473.088 371.5 476.954 371.5Z" fill="#DDE3E9"/>
<path fill-rule="evenodd" clip-rule="evenodd" d="M476.954 367.5C478.611 367.5 479.954 366.157 479.954 364.5C479.954 362.843 478.611 361.5 476.954 361.5C475.297 361.5 473.954 362.843 473.954 364.5C473.954 366.157 475.297 367.5 476.954 367.5Z" fill="#F2F2F2"/>
<rect x="276" y="298" width="225" height="39" rx="4" fill="white"/>
<g clip-path="url(#clip13)">
<rect x="285" y="309.7" width="167" height="5.85" rx="2.925" fill="#DDE3E9"/>
<rect x="285" y="319.45" width="112.096" height="5.85" rx="2.925" fill="#DDE3E9"/>
</g>
<path fill-rule="evenodd" clip-rule="evenodd" d="M476.954 324.5C480.82 324.5 483.954 321.366 483.954 317.5C483.954 313.634 480.82 310.5 476.954 310.5C473.088 310.5 469.954 313.634 469.954 317.5C469.954 321.366 473.088 324.5 476.954 324.5Z" fill="#DDE3E9"/>
<path fill-rule="evenodd" clip-rule="evenodd" d="M476.954 320.5C478.611 320.5 479.954 319.157 479.954 317.5C479.954 315.843 478.611 314.5 476.954 314.5C475.297 314.5 473.954 315.843 473.954 317.5C473.954 319.157 475.297 320.5 476.954 320.5Z" fill="#F2F2F2"/>
<rect x="584" y="54" width="6" height="25" rx="3" fill="#DDE3E9"/>
<rect x="598" y="38" width="6" height="41" rx="3" fill="#DDE3E9"/>
<rect x="612" y="30" width="6" height="49" rx="3" fill="#DDE3E9"/>
<rect x="626" y="38" width="6" height="41" rx="3" fill="#DDE3E9"/>
<rect x="640" y="22" width="6" height="57" rx="3" fill="#C5CFD6"/>
<path fill-rule="evenodd" clip-rule="evenodd" d="M77 348.256C77 337.117 86.002 328 97 328V348.256L83.332 363C79.444 359.395 77 354.107 77 348.256Z" fill="#F2F2F2"/>
<path fill-rule="evenodd" clip-rule="evenodd" d="M96.4708 348H116.668C116.668 353.221 114.538 358.113 111.171 361.668C107.468 365.556 102.195 368 96.4708 368C91.1983 368 86.3722 365.891 82.668 362.557L96.4708 348Z" fill="#AFB9C5"/>
<path fill-rule="evenodd" clip-rule="evenodd" d="M117 348C117 337.002 107.998 328 97 328V348H117ZM87 328L95 346L77 338C78.78 333.334 82.777 329.78 87 328Z" fill="#C5CFD6"/>
<path fill-rule="evenodd" clip-rule="evenodd" d="M552.051 61.5039C550.573 63.0679 548.479 64.05 546.15 64.05C541.675 64.05 538.048 60.4459 538.048 56C538.048 51.5541 541.675 47.95 546.15 47.95V33C533.42 33 523 43.3523 523 56C523 68.6477 533.42 79 546.15 79C552.837 79 558.88 76.1894 563 71.7182L552.051 61.5039Z" fill="#F2F2F2"/>
<path fill-rule="evenodd" clip-rule="evenodd" d="M546 33V47.95C550.446 47.95 554.05 51.5541 554.05 56H569C569 43.3523 558.648 33 546 33Z" fill="#AFB9C5"/>
<path fill-rule="evenodd" clip-rule="evenodd" d="M554.073 56C554.073 58.5552 552.869 60.8266 551 62.2931L560.196 74C565.55 69.8088 569 63.312 569 56H554.073Z" fill="#C5CFD6"/>
<path fill-rule="evenodd" clip-rule="evenodd" d="M50.007 53.9863C50.003 53.9963 49.999 54.0063 49.993 54.0183C49.999 54.0083 50.007 53.9683 50.007 53.9863Z" fill="#C5CFD6"/>
<path fill-rule="evenodd" clip-rule="evenodd" d="M49.9977 54.0015C49.9977 54.0035 49.9957 54.0075 49.9957 54.0115C49.9957 54.0015 50.0137 53.9715 49.9977 54.0015Z" fill="#C5CFD6"/>
<path fill-rule="evenodd" clip-rule="evenodd" d="M50.0671 53.8323C50.0531 53.8723 50.0351 53.9103 50.0191 53.9503C50.0271 53.9303 50.0351 53.9143 50.0431 53.8943C49.8351 54.4143 49.9671 54.0763 50.0671 53.8323Z" fill="#C5CFD6"/>
<path fill-rule="evenodd" clip-rule="evenodd" d="M50.0224 53.9528C50.0144 53.9708 50.0064 53.9907 49.9984 54.0087C49.9404 54.1207 50.0224 53.9528 50.0224 53.9528Z" fill="#C5CFD6"/>
<path fill-rule="evenodd" clip-rule="evenodd" d="M49.999 54.002C49.999 54 49.999 54 50.001 53.998C49.999 54 49.999 54 49.999 54.002Z" fill="#C5CFD6"/>
<path fill-rule="evenodd" clip-rule="evenodd" d="M49.9895 54.0164C49.9775 54.0404 50.0455 53.9244 49.9895 54.0164V54.0164Z" fill="#C5CFD6"/>
<path fill-rule="evenodd" clip-rule="evenodd" d="M49.998 54.002L50.002 53.998C50 54 50 54.002 49.998 54.002Z" fill="#C5CFD6"/>
<rect x="2" y="2" width="95" height="63" rx="4" fill="#DDE3E9"/>
<path fill-rule="evenodd" clip-rule="evenodd" d="M38 20L10 65H66L38 20Z" fill="#AFB9C5"/>
<path fill-rule="evenodd" clip-rule="evenodd" d="M65.5 32L41 65H90L65.5 32Z" fill="#C5CFD6"/>
<path fill-rule="evenodd" clip-rule="evenodd" d="M76 32C80.9706 32 85 27.9706 85 23C85 18.0294 80.9706 14 76 14C71.0294 14 67 18.0294 67 23C67 27.9706 71.0294 32 76 32Z" fill="white"/>
<path fill-rule="evenodd" clip-rule="evenodd" d="M576.993 545.986C576.997 545.996 577.001 546.006 577.007 546.018C577.001 546.008 576.993 545.968 576.993 545.986Z" fill="#C5CFD6"/>
<path fill-rule="evenodd" clip-rule="evenodd" d="M577.002 546.001C577.002 546.003 577.004 546.007 577.004 546.011C577.004 546.001 576.986 545.971 577.002 546.001Z" fill="#C5CFD6"/>
<path fill-rule="evenodd" clip-rule="evenodd" d="M576.933 545.832C576.947 545.872 576.965 545.91 576.981 545.95C576.973 545.93 576.965 545.914 576.957 545.894C577.165 546.414 577.033 546.076 576.933 545.832Z" fill="#C5CFD6"/>
<path fill-rule="evenodd" clip-rule="evenodd" d="M576.978 545.953C576.986 545.971 576.994 545.991 577.002 546.009C577.06 546.121 576.978 545.953 576.978 545.953Z" fill="#C5CFD6"/>
<path fill-rule="evenodd" clip-rule="evenodd" d="M577.001 546.002C577.001 546 577.001 546 576.999 545.998C577.001 546 577.001 546 577.001 546.002Z" fill="#C5CFD6"/>
<path fill-rule="evenodd" clip-rule="evenodd" d="M577.01 546.016C577.022 546.04 576.954 545.924 577.01 546.016V546.016Z" fill="#C5CFD6"/>
<path fill-rule="evenodd" clip-rule="evenodd" d="M577.002 546.002L576.998 545.998C577 546 577 546.002 577.002 546.002Z" fill="#C5CFD6"/>
<rect width="142" height="94" rx="4" transform="matrix(-1 0 0 1 648 469)" fill="#DDE3E9"/>
<path fill-rule="evenodd" clip-rule="evenodd" d="M595.274 496L636.329 563H554.219L595.274 496Z" fill="#AFB9C5"/>
<path fill-rule="evenodd" clip-rule="evenodd" d="M552.944 513.946L589.239 563H516.649L552.944 513.946Z" fill="#C5CFD6"/>
<path fill-rule="evenodd" clip-rule="evenodd" d="M537.5 514C530.044 514 524 507.956 524 500.5C524 493.044 530.044 487 537.5 487C544.956 487 551 493.044 551 500.5C551 507.956 544.956 514 537.5 514Z" fill="white"/>
<defs>
<clipPath id="clip0">
<rect width="73" height="21.6" fill="white" transform="translate(181 98.2)"/>
</clipPath>
<clipPath id="clip1">
<rect width="73" height="16.8" fill="white" transform="translate(181 156.6)"/>
</clipPath>
<clipPath id="clip2">
<rect width="73" height="16.8" fill="white" transform="translate(181 206.6)"/>
</clipPath>
<clipPath id="clip3">
<rect width="73" height="16.8" fill="white" transform="translate(181 256.6)"/>
</clipPath>
<clipPath id="clip4">
<rect width="73" height="21.6" fill="white" transform="translate(217 124.2)"/>
</clipPath>
<clipPath id="clip5">
<rect width="73" height="16.8" fill="white" transform="translate(247 182.6)"/>
</clipPath>
<clipPath id="clip6">
<rect width="73" height="16.8" fill="white" transform="translate(217 232.6)"/>
</clipPath>
<clipPath id="clip7">
<rect width="73" height="16.8" fill="white" transform="translate(247 282.6)"/>
</clipPath>
<clipPath id="clip8">
<rect width="167" height="18.8" fill="white" transform="translate(285 163.1)"/>
</clipPath>
<clipPath id="clip9">
<rect width="167" height="15.6" fill="white" transform="translate(285 215.7)"/>
</clipPath>
<clipPath id="clip10">
<rect width="167" height="15.6" fill="white" transform="translate(285 262.7)"/>
</clipPath>
<clipPath id="clip11">
<rect width="167" height="15.6" fill="white" transform="translate(285 403.7)"/>
</clipPath>
<clipPath id="clip12">
<rect width="167" height="15.6" fill="white" transform="translate(285 356.7)"/>
</clipPath>
<clipPath id="clip13">
<rect width="167" height="15.6" fill="white" transform="translate(285 309.7)"/>
</clipPath>
</defs>
</svg>
