<svg width="301" height="523" viewBox="0 0 301 523" fill="none" xmlns="http://www.w3.org/2000/svg">
<path fill-rule="evenodd" clip-rule="evenodd" d="M15.6065 26.9091C69.7751 27.3347 123.783 34.8127 169.938 63.1712C215.628 91.2448 254.74 132.353 270.595 183.581C285.635 232.176 271.823 284.163 252.957 331.404C236.381 372.91 205.002 404.378 170.887 433.251C137.382 461.609 102.53 493.561 58.6934 495.821C15.5015 498.048 -20.8034 468.322 -57.2341 445.013C-92.3803 422.526 -120.685 394.903 -148.141 363.485C-189.431 316.236 -255.829 278.641 -257.437 215.914C-259.063 152.535 -208.039 96.6953 -155.91 60.6109C-106.8 26.6169 -44.1186 26.4398 15.6065 26.9091Z" fill="#28283F" fill-opacity="0.55"/>
</svg>
