<svg width="423" height="502" viewBox="0 0 423 502" fill="none" xmlns="http://www.w3.org/2000/svg">
<path fill-rule="evenodd" clip-rule="evenodd" d="M379.192 -194.076C447.007 -183.12 503.257 -129.975 537.88 -70.6439C569.163 -17.0361 549.856 48.336 556.655 110.031C563.592 172.982 596.015 233.397 578.079 294.137C557.322 364.431 520.61 443.514 451.215 467.103C382.017 490.625 313.661 434.495 245.927 407.042C190.774 384.689 130.434 369.144 93.8005 322.244C58.2759 276.764 48.1282 216.22 51.8937 158.633C55.2661 107.057 90.5716 66.8041 113.531 20.4972C138.885 -30.64 148.779 -90.4682 193.182 -126.332C245.804 -168.835 312.415 -204.864 379.192 -194.076Z" fill="#28283F" fill-opacity="0.55"/>
</svg>
