<svg width="52" height="49" viewBox="0 0 52 49" fill="none" xmlns="http://www.w3.org/2000/svg">
<path id="icon" fill-rule="evenodd" clip-rule="evenodd" d="M9.00973 12.2222C8.16415 10.9105 7.72917 9.29587 7.72917 7.33333C7.72917 3.46399 10.796 0 15.4583 0C20.1267 0 23.8915 2.96664 25.7639 7.61158C27.6362 2.96664 31.401 0 36.0694 0C40.7318 0 43.7986 3.46399 43.7986 7.33333C43.7986 9.29587 43.3636 10.9105 42.518 12.2222H46.375C49.2208 12.2222 51.5278 14.4111 51.5278 17.1111V22C51.5278 24.7001 49.2208 26.8889 46.375 26.8889V44C46.375 46.7001 44.068 48.8889 41.2222 48.8889H10.3056C7.45975 48.8889 5.15278 46.7001 5.15278 44V26.8889C2.30698 26.8889 0 24.7001 0 22V17.1111C0 14.4111 2.30698 12.2222 5.15278 12.2222H9.00973ZM23.1875 17.1111H5.15281V22H23.1875V17.1111ZM46.375 22H28.3403V17.1111H46.375V22ZM23.1875 44V26.8889H10.3056V44H23.1875ZM41.2222 44H28.3403V26.8889H41.2222V44ZM15.4583 4.8889C13.8601 4.8889 12.882 5.9937 12.882 7.33335C12.882 10.3968 15.5021 11.8534 21.7175 12.1599C21.0267 7.60614 18.4526 4.8889 15.4583 4.8889ZM29.6285 12.1599C30.3193 7.60614 32.8934 4.8889 35.8876 4.8889C37.4859 4.8889 38.464 5.9937 38.464 7.33335C38.464 10.3968 35.8438 11.8534 29.6285 12.1599Z" fill="url(#paint0_linear)"/>
<defs>
<linearGradient id="paint0_linear" x1="51.2056" y1="3.07778" x2="0.205579" y2="48.5778" gradientUnits="userSpaceOnUse">
<stop stop-color="#fff"/>
<stop offset="0.609375" stop-color="#00BCD4"/>
<stop offset="1" stop-color="#2FBEA6"/>
</linearGradient>
</defs>
</svg>
