<svg width="50" height="50" viewBox="0 0 50 50" fill="none" xmlns="http://www.w3.org/2000/svg">
<path fill-rule="evenodd" clip-rule="evenodd" d="M8.7426 12.6445C7.92209 11.3327 7.5 9.71811 7.5 7.75557C7.5 3.88623 10.4759 0.422241 15 0.422241C19.53 0.422241 23.1832 3.38888 25 8.03382C26.8168 3.38888 30.47 0.422241 35 0.422241C39.5241 0.422241 42.5 3.88623 42.5 7.75557C42.5 9.71811 42.0779 11.3327 41.2574 12.6445H45C47.7614 12.6445 50 14.8333 50 17.5334V22.4222C50 25.1223 47.7614 27.3111 45 27.3111V44.4222C45 47.1223 42.7614 49.3111 40 49.3111H10C7.23858 49.3111 5 47.1223 5 44.4222V27.3111C2.23858 27.3111 0 25.1223 0 22.4222V17.5334C0 14.8333 2.23858 12.6445 5 12.6445H8.7426ZM22.5 17.5333H5.00002V22.4222H22.5V17.5333ZM45 22.4222H27.5V17.5333H45V22.4222ZM22.5 44.4222V27.3111H9.99999V44.4222H22.5ZM40 44.4222H27.5V27.3111H40V44.4222ZM15 5.31116C13.4491 5.31116 12.5 6.41595 12.5 7.7556C12.5 10.8191 15.0425 12.2757 21.0735 12.5821C20.4033 8.0284 17.9054 5.31116 15 5.31116ZM28.75 12.5821C29.4203 8.0284 31.9181 5.31116 34.8235 5.31116C36.3744 5.31116 37.3235 6.41595 37.3235 7.7556C37.3235 10.8191 34.781 12.2757 28.75 12.5821Z" fill="url(#paint0_linear)"/>
<defs>
<linearGradient id="paint0_linear" x1="49.6874" y1="3.50002" x2="-1.11587" y2="47.4806" gradientUnits="userSpaceOnUse">
<stop stop-color="#5B86E6"/>
<stop offset="0.609375" stop-color="#00BCD4"/>
<stop offset="1" stop-color="#2FBEA6"/>
</linearGradient>
</defs>
</svg>