<svg width="677" height="678" viewBox="0 0 677 678" fill="none" xmlns="http://www.w3.org/2000/svg">
<g id="Group 10">
<g id="Scene/Home">
<g id="Mobile3">
<rect id="Container" x="157" y="54" width="159" height="302" rx="8" fill="#F2F2F2"/>
<path id="Touch" fill-rule="evenodd" clip-rule="evenodd" d="M236 337C244.284 337 251 330.284 251 322C251 313.716 244.284 307 236 307C227.716 307 221 313.716 221 322C221 330.284 227.716 337 236 337Z" fill="white"/>
<g id="Camera">
<path id="Lens" fill-rule="evenodd" clip-rule="evenodd" d="M223 74C224.105 74 225 73.1046 225 72C225 70.8954 224.105 70 223 70C221.895 70 221 70.8954 221 72C221 73.1046 221.895 74 223 74Z" fill="white"/>
<rect id="Sensor" x="230" y="70" width="21" height="4" rx="2" fill="white"/>
</g>
<g id="Rows">
<g id="Row">
<rect id="Background" x="171" y="82" width="131" height="54" rx="4" fill="white"/>
<g id="Text" clip-path="url(#clip0)">
<rect id="Name" x="210" y="98.2" width="73" height="8.1" rx="3" fill="#DDE3E9"/>
<rect id="Name_2" x="210" y="111.7" width="49" height="8.1" rx="3" fill="#DDE3E9"/>
</g>
<path id="Avatar" fill-rule="evenodd" clip-rule="evenodd" d="M192 121C198.627 121 204 115.627 204 109C204 102.373 198.627 97 192 97C185.373 97 180 102.373 180 109C180 115.627 185.373 121 192 121Z" fill="#C5CFD6"/>
</g>
<g id="Row_2">
<rect id="Background_2" x="171" y="144" width="131" height="42" rx="4" fill="white"/>
<g id="Text_2" clip-path="url(#clip1)">
<rect id="Name_3" x="210" y="156.6" width="73" height="6.3" rx="3" fill="#DDE3E9"/>
<rect id="Name_4" x="210" y="167.1" width="49" height="6.3" rx="3" fill="#DDE3E9"/>
</g>
<path id="Avatar_2" fill-rule="evenodd" clip-rule="evenodd" d="M192 177C198.627 177 204 171.627 204 165C204 158.373 198.627 153 192 153C185.373 153 180 158.373 180 165C180 171.627 185.373 177 192 177Z" fill="#C5CFD6"/>
</g>
<g id="Row_3">
<rect id="Background_3" x="171" y="194" width="131" height="42" rx="4" fill="white"/>
<g id="Text_3" clip-path="url(#clip2)">
<rect id="Name_5" x="210" y="206.6" width="73" height="6.3" rx="3" fill="#DDE3E9"/>
<rect id="Name_6" x="210" y="217.1" width="49" height="6.3" rx="3" fill="#DDE3E9"/>
</g>
<path id="Avatar_3" fill-rule="evenodd" clip-rule="evenodd" d="M192 227C198.627 227 204 221.627 204 215C204 208.373 198.627 203 192 203C185.373 203 180 208.373 180 215C180 221.627 185.373 227 192 227Z" fill="#AFB9C5"/>
</g>
<g id="Row_4">
<rect id="Background_4" x="171" y="244" width="131" height="42" rx="4" fill="white"/>
<g id="Text_4" clip-path="url(#clip3)">
<rect id="Name_7" x="210" y="256.6" width="73" height="6.3" rx="3" fill="#DDE3E9"/>
<rect id="Name_8" x="210" y="267.1" width="49" height="6.3" rx="3" fill="#DDE3E9"/>
</g>
<path id="Avatar_4" fill-rule="evenodd" clip-rule="evenodd" d="M192 277C198.627 277 204 271.627 204 265C204 258.373 198.627 253 192 253C185.373 253 180 258.373 180 265C180 271.627 185.373 277 192 277Z" fill="#C5CFD6"/>
</g>
</g>
</g>
<g id="Mobile3_2">
<rect id="Container_2" x="223" y="80" width="159" height="302" rx="8" fill="#DDE3E9"/>
<path id="Touch_2" fill-rule="evenodd" clip-rule="evenodd" d="M302 363C310.284 363 317 356.284 317 348C317 339.716 310.284 333 302 333C293.716 333 287 339.716 287 348C287 356.284 293.716 363 302 363Z" fill="white"/>
<g id="Camera_2">
<path id="Lens_2" fill-rule="evenodd" clip-rule="evenodd" d="M289 100C290.105 100 291 99.1046 291 98C291 96.8954 290.105 96 289 96C287.895 96 287 96.8954 287 98C287 99.1046 287.895 100 289 100Z" fill="white"/>
<rect id="Sensor_2" x="296" y="96" width="21" height="4" rx="2" fill="white"/>
</g>
<g id="Rows_2">
<g id="Row_5">
<rect id="Container_3" x="237" y="108" width="131" height="54" rx="4" fill="white"/>
<g id="Text Stuff" clip-path="url(#clip4)">
<rect id="Label" x="246" y="124.2" width="73" height="8.1" rx="3" fill="#DDE3E9"/>
<rect id="Label_2" x="246" y="137.7" width="49" height="8.1" rx="3" fill="#DDE3E9"/>
</g>
<g id="Check">
<path id="Background_5" fill-rule="evenodd" clip-rule="evenodd" d="M354 142C357.866 142 361 138.866 361 135C361 131.134 357.866 128 354 128C350.134 128 347 131.134 347 135C347 138.866 350.134 142 354 142Z" fill="#DDE3E9"/>
<path id="Indicator" fill-rule="evenodd" clip-rule="evenodd" d="M354 138C355.657 138 357 136.657 357 135C357 133.343 355.657 132 354 132C352.343 132 351 133.343 351 135C351 136.657 352.343 138 354 138Z" fill="#F2F2F2"/>
</g>
</g>
<g id="Row_6">
<rect id="Background_6" x="237" y="170" width="131" height="42" rx="4" fill="white"/>
<g id="Text_5" clip-path="url(#clip5)">
<rect id="Name_9" x="276" y="182.6" width="73" height="6.3" rx="3" fill="#DDE3E9"/>
<rect id="Name_10" x="276" y="193.1" width="49" height="6.3" rx="3" fill="#DDE3E9"/>
</g>
<path id="Avatar_5" fill-rule="evenodd" clip-rule="evenodd" d="M258 203C264.627 203 270 197.627 270 191C270 184.373 264.627 179 258 179C251.373 179 246 184.373 246 191C246 197.627 251.373 203 258 203Z" fill="#C5CFD6"/>
</g>
<g id="Row_7">
<rect id="Container_4" x="237" y="220" width="131" height="42" rx="4" fill="white"/>
<g id="Text Stuff_2" clip-path="url(#clip6)">
<rect id="Label_3" x="246" y="232.6" width="73" height="6.3" rx="3" fill="#DDE3E9"/>
<rect id="Label_4" x="246" y="243.1" width="49" height="6.3" rx="3" fill="#AFB9C5"/>
</g>
<g id="Check_2">
<path id="Background_7" fill-rule="evenodd" clip-rule="evenodd" d="M354 248C357.866 248 361 244.866 361 241C361 237.134 357.866 234 354 234C350.134 234 347 237.134 347 241C347 244.866 350.134 248 354 248Z" fill="#DDE3E9"/>
<path id="Indicator_2" fill-rule="evenodd" clip-rule="evenodd" d="M354 244C355.657 244 357 242.657 357 241C357 239.343 355.657 238 354 238C352.343 238 351 239.343 351 241C351 242.657 352.343 244 354 244Z" fill="#F2F2F2"/>
</g>
</g>
<g id="Row_8">
<rect id="Background_8" x="237" y="270" width="131" height="42" rx="4" fill="white"/>
<g id="Text_6" clip-path="url(#clip7)">
<rect id="Name_11" x="276" y="282.6" width="73" height="6.3" rx="3" fill="#DDE3E9"/>
<rect id="Name_12" x="276" y="293.1" width="49" height="6.3" rx="3" fill="#DDE3E9"/>
</g>
<path id="Avatar_6" fill-rule="evenodd" clip-rule="evenodd" d="M258 303C264.627 303 270 297.627 270 291C270 284.373 264.627 279 258 279C251.373 279 246 284.373 246 291C246 297.627 251.373 303 258 303Z" fill="#C5CFD6"/>
</g>
</g>
</g>
<g id="Web">
<rect id="Container_5" x="289" y="105" width="335" height="346" rx="8" fill="#F2F2F2"/>
<rect id="Background_9" x="538" y="148" width="70" height="81" rx="8" fill="white"/>
<g id="Profile Info">
<path id="Avatar_7" fill-rule="evenodd" clip-rule="evenodd" d="M573 195C581.837 195 589 187.837 589 179C589 170.163 581.837 163 573 163C564.163 163 557 170.163 557 179C557 187.837 564.163 195 573 195Z" fill="#DDE3E9"/>
<rect id="Name_13" x="548" y="199" width="50" height="6" rx="3" fill="#DDE3E9"/>
<rect id="Name_14" x="556" y="209" width="34" height="6" rx="3" fill="#DDE3E9"/>
</g>
<path id="Header" d="M289 113C289 108.582 292.582 105 297 105H616C620.418 105 624 108.582 624 113V132H289V113Z" fill="#C5CFD6"/>
<g id="Buttons">
<path id="buttons" fill-rule="evenodd" clip-rule="evenodd" d="M302 123C304.209 123 306 121.209 306 119C306 116.791 304.209 115 302 115C299.791 115 298 116.791 298 119C298 121.209 299.791 123 302 123Z" fill="#F2F2F2"/>
<path id="buttons_2" fill-rule="evenodd" clip-rule="evenodd" d="M314 123C316.209 123 318 121.209 318 119C318 116.791 316.209 115 314 115C311.791 115 310 116.791 310 119C310 121.209 311.791 123 314 123Z" fill="#F2F2F2"/>
<path id="buttons_3" fill-rule="evenodd" clip-rule="evenodd" d="M326 123C328.209 123 330 121.209 330 119C330 116.791 328.209 115 326 115C323.791 115 322 116.791 322 119C322 121.209 323.791 123 326 123Z" fill="#F2F2F2"/>
</g>
<g id="Components">
<rect id="Background_10" x="538" y="237" width="70" height="194" rx="8" fill="white"/>
<g id="Rows_3">
<rect id="Data" x="556" y="255" width="34" height="26" rx="4" fill="#DDE3E9"/>
<rect id="Data_2" x="556" y="289" width="34" height="25" rx="4" fill="#AFB9C5"/>
<rect id="Data_3" x="556" y="322" width="34" height="25" rx="4" fill="#DDE3E9"/>
<rect id="Data_4" x="556" y="388" width="34" height="25" rx="4" fill="#DDE3E9"/>
<rect id="Data_5" x="556" y="355" width="34" height="25" rx="4" fill="#C5CFD6"/>
</g>
</g>
<g id="Rows_4">
<g id="Row_9">
<rect id="Container_6" x="305" y="149" width="225" height="47" rx="4" fill="white"/>
<g id="Text Stuff_3" clip-path="url(#clip8)">
<rect id="Label_5" x="314" y="163.1" width="167" height="7.05" rx="3" fill="#DDE3E9"/>
<rect id="Label_6" x="314" y="174.85" width="112.096" height="7.05" rx="3" fill="#DDE3E9"/>
</g>
<g id="Check_3">
<path id="Background_11" fill-rule="evenodd" clip-rule="evenodd" d="M505.954 179.5C509.82 179.5 512.954 176.366 512.954 172.5C512.954 168.634 509.82 165.5 505.954 165.5C502.088 165.5 498.954 168.634 498.954 172.5C498.954 176.366 502.088 179.5 505.954 179.5Z" fill="#DDE3E9"/>
<path id="Indicator_3" fill-rule="evenodd" clip-rule="evenodd" d="M505.954 175.5C507.611 175.5 508.954 174.157 508.954 172.5C508.954 170.843 507.611 169.5 505.954 169.5C504.297 169.5 502.954 170.843 502.954 172.5C502.954 174.157 504.297 175.5 505.954 175.5Z" fill="#F2F2F2"/>
</g>
</g>
<g id="Row_10">
<rect id="Container_7" x="305" y="204" width="225" height="39" rx="4" fill="white"/>
<g id="Text Stuff_4" clip-path="url(#clip9)">
<rect id="Label_7" x="314" y="215.7" width="167" height="5.85" rx="2.925" fill="#DDE3E9"/>
<rect id="Label_8" x="314" y="225.45" width="112.096" height="5.85" rx="2.925" fill="#DDE3E9"/>
</g>
<g id="Check_4">
<path id="Background_12" fill-rule="evenodd" clip-rule="evenodd" d="M505.954 230.5C509.82 230.5 512.954 227.366 512.954 223.5C512.954 219.634 509.82 216.5 505.954 216.5C502.088 216.5 498.954 219.634 498.954 223.5C498.954 227.366 502.088 230.5 505.954 230.5Z" fill="#DDE3E9"/>
<path id="Indicator_4" fill-rule="evenodd" clip-rule="evenodd" d="M505.954 226.5C507.611 226.5 508.954 225.157 508.954 223.5C508.954 221.843 507.611 220.5 505.954 220.5C504.297 220.5 502.954 221.843 502.954 223.5C502.954 225.157 504.297 226.5 505.954 226.5Z" fill="#F2F2F2"/>
</g>
</g>
<g id="Row_11">
<rect id="Container_8" x="305" y="251" width="225" height="39" rx="4" fill="white"/>
<g id="Text Stuff_5" clip-path="url(#clip10)">
<rect id="Label_9" x="314" y="262.7" width="167" height="5.85" rx="2.925" fill="#DDE3E9"/>
<rect id="Label_10" x="314" y="272.45" width="112.096" height="5.85" rx="2.925" fill="#DDE3E9"/>
</g>
<g id="Check_5">
<path id="Background_13" fill-rule="evenodd" clip-rule="evenodd" d="M505.954 277.5C509.82 277.5 512.954 274.366 512.954 270.5C512.954 266.634 509.82 263.5 505.954 263.5C502.088 263.5 498.954 266.634 498.954 270.5C498.954 274.366 502.088 277.5 505.954 277.5Z" fill="#DDE3E9"/>
<path id="Indicator_5" fill-rule="evenodd" clip-rule="evenodd" d="M505.954 273.5C507.611 273.5 508.954 272.157 508.954 270.5C508.954 268.843 507.611 267.5 505.954 267.5C504.297 267.5 502.954 268.843 502.954 270.5C502.954 272.157 504.297 273.5 505.954 273.5Z" fill="#AFB9C5"/>
</g>
</g>
<g id="Row_12">
<rect id="Container_9" x="305" y="392" width="225" height="39" rx="4" fill="white"/>
<g id="Text Stuff_6" clip-path="url(#clip11)">
<rect id="Label_11" x="314" y="403.7" width="167" height="5.85" rx="2.925" fill="#DDE3E9"/>
<rect id="Label_12" x="314" y="413.45" width="112.096" height="5.85" rx="2.925" fill="#DDE3E9"/>
</g>
<g id="Check_6">
<path id="Background_14" fill-rule="evenodd" clip-rule="evenodd" d="M505.954 418.5C509.82 418.5 512.954 415.366 512.954 411.5C512.954 407.634 509.82 404.5 505.954 404.5C502.088 404.5 498.954 407.634 498.954 411.5C498.954 415.366 502.088 418.5 505.954 418.5Z" fill="#DDE3E9"/>
<path id="Indicator_6" fill-rule="evenodd" clip-rule="evenodd" d="M505.954 414.5C507.611 414.5 508.954 413.157 508.954 411.5C508.954 409.843 507.611 408.5 505.954 408.5C504.297 408.5 502.954 409.843 502.954 411.5C502.954 413.157 504.297 414.5 505.954 414.5Z" fill="#F2F2F2"/>
</g>
</g>
<g id="Row_13">
<rect id="Container_10" x="305" y="345" width="225" height="39" rx="4" fill="white"/>
<g id="Text Stuff_7" clip-path="url(#clip12)">
<rect id="Label_13" x="314" y="356.7" width="167" height="5.85" rx="2.925" fill="#DDE3E9"/>
<rect id="Label_14" x="314" y="366.45" width="112.096" height="5.85" rx="2.925" fill="#DDE3E9"/>
</g>
<g id="Check_7">
<path id="Background_15" fill-rule="evenodd" clip-rule="evenodd" d="M505.954 371.5C509.82 371.5 512.954 368.366 512.954 364.5C512.954 360.634 509.82 357.5 505.954 357.5C502.088 357.5 498.954 360.634 498.954 364.5C498.954 368.366 502.088 371.5 505.954 371.5Z" fill="#DDE3E9"/>
<path id="Indicator_7" fill-rule="evenodd" clip-rule="evenodd" d="M505.954 367.5C507.611 367.5 508.954 366.157 508.954 364.5C508.954 362.843 507.611 361.5 505.954 361.5C504.297 361.5 502.954 362.843 502.954 364.5C502.954 366.157 504.297 367.5 505.954 367.5Z" fill="#F2F2F2"/>
</g>
</g>
<g id="Row_14">
<rect id="Container_11" x="305" y="298" width="225" height="39" rx="4" fill="white"/>
<g id="Text Stuff_8" clip-path="url(#clip13)">
<rect id="Label_15" x="314" y="309.7" width="167" height="5.85" rx="2.925" fill="#DDE3E9"/>
<rect id="Label_16" x="314" y="319.45" width="112.096" height="5.85" rx="2.925" fill="#DDE3E9"/>
</g>
<g id="Check_8">
<path id="Background_16" fill-rule="evenodd" clip-rule="evenodd" d="M505.954 324.5C509.82 324.5 512.954 321.366 512.954 317.5C512.954 313.634 509.82 310.5 505.954 310.5C502.088 310.5 498.954 313.634 498.954 317.5C498.954 321.366 502.088 324.5 505.954 324.5Z" fill="#DDE3E9"/>
<path id="Indicator_8" fill-rule="evenodd" clip-rule="evenodd" d="M505.954 320.5C507.611 320.5 508.954 319.157 508.954 317.5C508.954 315.843 507.611 314.5 505.954 314.5C504.297 314.5 502.954 315.843 502.954 317.5C502.954 319.157 504.297 320.5 505.954 320.5Z" fill="#F2F2F2"/>
</g>
</g>
</g>
</g>
<g id="Graph">
<rect id="Value" x="613" y="54" width="6" height="25" rx="3" fill="#DDE3E9"/>
<rect id="Value_2" x="627" y="38" width="6" height="41" rx="3" fill="#DDE3E9"/>
<rect id="Value_3" x="641" y="30" width="6" height="49" rx="3" fill="#DDE3E9"/>
<rect id="Value_4" x="655" y="38" width="6" height="41" rx="3" fill="#DDE3E9"/>
<rect id="Value_5" x="669" y="22" width="6" height="57" rx="3" fill="#C5CFD6"/>
</g>
<g id="Pie Chart">
<path id="Value_6" fill-rule="evenodd" clip-rule="evenodd" d="M106 348.256C106 337.117 115.002 328 126 328V348.256L112.332 363C108.444 359.395 106 354.107 106 348.256Z" fill="#F2F2F2"/>
<path id="Value_7" fill-rule="evenodd" clip-rule="evenodd" d="M125.471 348H145.668C145.668 353.221 143.538 358.113 140.171 361.668C136.468 365.556 131.195 368 125.471 368C120.198 368 115.372 365.891 111.668 362.557L125.471 348Z" fill="#AFB9C5"/>
<path id="Value_8" fill-rule="evenodd" clip-rule="evenodd" d="M146 348C146 337.002 136.998 328 126 328V348H146ZM116 328L124 346L106 338C107.78 333.334 111.777 329.78 116 328Z" fill="#C5CFD6"/>
</g>
<g id="Chart">
<path id="Value_9" fill-rule="evenodd" clip-rule="evenodd" d="M581.051 61.5039C579.573 63.0679 577.479 64.05 575.15 64.05C570.675 64.05 567.048 60.4459 567.048 56C567.048 51.5541 570.675 47.95 575.15 47.95V33C562.42 33 552 43.3523 552 56C552 68.6477 562.42 79 575.15 79C581.837 79 587.88 76.1894 592 71.7182L581.051 61.5039Z" fill="#F2F2F2"/>
<path id="Value_10" fill-rule="evenodd" clip-rule="evenodd" d="M575 33V47.95C579.446 47.95 583.05 51.5541 583.05 56H598C598 43.3523 587.648 33 575 33Z" fill="#AFB9C5"/>
<path id="Value_11" fill-rule="evenodd" clip-rule="evenodd" d="M583.073 56C583.073 58.5552 581.869 60.8266 580 62.2931L589.196 74C594.55 69.8088 598 63.312 598 56H583.073Z" fill="#C5CFD6"/>
</g>
<g id="Image">
<path id="Fill 35" fill-rule="evenodd" clip-rule="evenodd" d="M79.007 53.9863C79.003 53.9963 78.999 54.0063 78.993 54.0183C78.999 54.0083 79.007 53.9683 79.007 53.9863Z" fill="#C5CFD6"/>
<path id="Fill 37" fill-rule="evenodd" clip-rule="evenodd" d="M78.9977 54.0015C78.9977 54.0035 78.9957 54.0075 78.9957 54.0115C78.9957 54.0015 79.0137 53.9715 78.9977 54.0015Z" fill="#C5CFD6"/>
<path id="Fill 39" fill-rule="evenodd" clip-rule="evenodd" d="M79.0671 53.8323C79.0531 53.8723 79.0351 53.9103 79.0191 53.9503C79.0271 53.9303 79.0351 53.9143 79.0431 53.8943C78.8351 54.4143 78.9671 54.0763 79.0671 53.8323Z" fill="#C5CFD6"/>
<path id="Fill 41" fill-rule="evenodd" clip-rule="evenodd" d="M79.0224 53.9528C79.0144 53.9708 79.0064 53.9907 78.9984 54.0087C78.9404 54.1207 79.0224 53.9528 79.0224 53.9528Z" fill="#C5CFD6"/>
<path id="Fill 45" fill-rule="evenodd" clip-rule="evenodd" d="M78.999 54.002C78.999 54 78.999 54 79.001 53.998C78.999 54 78.999 54 78.999 54.002Z" fill="#C5CFD6"/>
<path id="Fill 47" fill-rule="evenodd" clip-rule="evenodd" d="M78.9895 54.0164C78.9775 54.0404 79.0455 53.9244 78.9895 54.0164V54.0164Z" fill="#C5CFD6"/>
<path id="Fill 49" fill-rule="evenodd" clip-rule="evenodd" d="M78.998 54.002L79.002 53.998C79 54 79 54.002 78.998 54.002Z" fill="#C5CFD6"/>
<rect id="Photo Background" x="31" y="2" width="95" height="63" rx="4" fill="#DDE3E9"/>
<g id="icons8-night_landscape">
<path id="Mountains" fill-rule="evenodd" clip-rule="evenodd" d="M67 20L39 65H95L67 20Z" fill="#AFB9C5"/>
<path id="Mountains_2" fill-rule="evenodd" clip-rule="evenodd" d="M94.5 32L70 65H119L94.5 32Z" fill="#C5CFD6"/>
</g>
<path id="Sun" fill-rule="evenodd" clip-rule="evenodd" d="M105 32C109.971 32 114 27.9706 114 23C114 18.0294 109.971 14 105 14C100.029 14 96 18.0294 96 23C96 27.9706 100.029 32 105 32Z" fill="white"/>
</g>
<g id="Image_2">
<path id="Fill 35_2" fill-rule="evenodd" clip-rule="evenodd" d="M605.993 545.986C605.997 545.996 606.001 546.006 606.007 546.018C606.001 546.008 605.993 545.968 605.993 545.986Z" fill="#C5CFD6"/>
<path id="Fill 37_2" fill-rule="evenodd" clip-rule="evenodd" d="M606.002 546.001C606.002 546.003 606.004 546.007 606.004 546.011C606.004 546.001 605.986 545.971 606.002 546.001Z" fill="#C5CFD6"/>
<path id="Fill 39_2" fill-rule="evenodd" clip-rule="evenodd" d="M605.933 545.832C605.947 545.872 605.965 545.91 605.981 545.95C605.973 545.93 605.965 545.914 605.957 545.894C606.165 546.414 606.033 546.076 605.933 545.832Z" fill="#C5CFD6"/>
<path id="Fill 41_2" fill-rule="evenodd" clip-rule="evenodd" d="M605.978 545.953C605.986 545.971 605.994 545.991 606.002 546.009C606.06 546.121 605.978 545.953 605.978 545.953Z" fill="#C5CFD6"/>
<path id="Fill 45_2" fill-rule="evenodd" clip-rule="evenodd" d="M606.001 546.002C606.001 546 606.001 546 605.999 545.998C606.001 546 606.001 546 606.001 546.002Z" fill="#C5CFD6"/>
<path id="Fill 47_2" fill-rule="evenodd" clip-rule="evenodd" d="M606.01 546.016C606.022 546.04 605.954 545.924 606.01 546.016V546.016Z" fill="#C5CFD6"/>
<path id="Fill 49_2" fill-rule="evenodd" clip-rule="evenodd" d="M606.002 546.002L605.998 545.998C606 546 606 546.002 606.002 546.002Z" fill="#C5CFD6"/>
<rect id="Photo Background_2" width="142" height="94" rx="4" transform="matrix(-1 0 0 1 677 469)" fill="#DDE3E9"/>
<g id="icons8-night_landscape_2">
<path id="Mountains_3" fill-rule="evenodd" clip-rule="evenodd" d="M624.274 496L665.329 563H583.219L624.274 496Z" fill="#AFB9C5"/>
<path id="Mountains_4" fill-rule="evenodd" clip-rule="evenodd" d="M581.944 513.946L618.239 563H545.649L581.944 513.946Z" fill="#C5CFD6"/>
</g>
<path id="Sun_2" fill-rule="evenodd" clip-rule="evenodd" d="M566.5 514C559.044 514 553 507.956 553 500.5C553 493.044 559.044 487 566.5 487C573.956 487 580 493.044 580 500.5C580 507.956 573.956 514 566.5 514Z" fill="white"/>
</g>
</g>
<g id="Frame 1" clip-path="url(#clip14)">
<g id="character 3">
<g id="RIGHT FOOT">
<g id="FOOT">
<path id="FOOT_2" d="M432.748 630.54C435.162 635.257 444.124 648.189 444.177 654.419C444.226 659.483 439.958 663.394 442.154 666.896C445.031 671.484 480.588 668.363 481.528 668.151C482.469 667.939 465.183 659.597 460.516 651.046C456.903 644.396 454.298 637.246 452.786 629.83L432.748 630.54Z" fill="#E49647"/>
<path id="SHADOW" d="M453.373 632.51C449.779 634.154 443.008 636.968 436.991 637.813C435.22 634.809 433.587 632.174 432.748 630.533L452.786 629.813C452.786 629.813 452.958 630.809 453.373 632.51Z" fill="#D48845"/>
</g>
<g id="SHOES">
<path id="Vector" d="M459.191 668.631L468.236 657.562C468.236 657.562 482.93 662.86 482.93 668.631H459.191Z" fill="#3F4D79"/>
<path id="Vector_2" d="M463.332 651.176V651.883C463.332 652.228 463.195 652.559 462.951 652.803C462.707 653.047 462.377 653.184 462.032 653.184H447.833C455.009 656.984 457.444 668.631 457.444 668.631H442.104C438.627 663.06 442.642 654.847 443.851 652.643C443.698 652.425 443.617 652.165 443.617 651.899V651.192C443.617 650.847 443.754 650.516 443.998 650.272C444.242 650.028 444.573 649.891 444.918 649.891H462.032C462.374 649.891 462.702 650.026 462.946 650.267C463.189 650.507 463.328 650.834 463.332 651.176V651.176Z" fill="#3F4D79"/>
<path id="Vector_3" d="M483.247 668.631H441.228C440.51 668.631 439.927 669.213 439.927 669.932V670.639C439.927 671.357 440.51 671.94 441.228 671.94H483.247C483.965 671.94 484.548 671.357 484.548 670.639V669.932C484.548 669.213 483.965 668.631 483.247 668.631Z" fill="#3CBFD4"/>
</g>
</g>
<g id="LEFT FOOT">
<g id="FOOT_3">
<path id="FOOT_4" d="M341.478 630.533C342.539 634.505 346.379 648.098 345.002 652.978C343.624 657.858 339.775 661.44 340.823 666.414C341.958 671.709 373.015 668.361 373.972 668.149C374.928 667.936 357.479 658.251 357.27 651.044C357.061 643.837 359.361 630.539 359.361 630.539L341.478 630.533Z" fill="#E49647"/>
<path id="SHADOW_2" d="M341.478 630.533H359.361C359.361 630.533 358.918 633.088 358.438 636.565C351.929 637.18 345.239 635.028 342.388 633.94C342.016 632.516 341.684 631.317 341.478 630.533Z" fill="#D48845"/>
</g>
<g id="SHOES_2">
<path id="Vector_4" d="M351.44 668.828C351.44 668.828 355.474 663.909 361.156 662.467C367.386 660.88 370.408 661.726 373.763 663.426C377.016 665.071 378.836 668.619 378.836 668.619L351.44 668.828Z" fill="#3F4D79"/>
<path id="Vector_5" d="M359.059 651.176V651.883C359.059 652.228 358.922 652.559 358.678 652.803C358.434 653.047 358.104 653.184 357.759 653.184H345.546C351.6 656.182 351.302 668.767 351.302 668.767H340.762C337.254 663.149 342.268 655.201 343.68 653.162C343.114 653.061 342.896 652.529 342.896 651.883V651.176C342.896 650.457 343.169 649.875 343.889 649.875H357.759C358.104 649.875 358.434 650.013 358.678 650.256C358.922 650.5 359.059 650.831 359.059 651.176V651.176Z" fill="#3F4D79"/>
<path id="Vector_6" d="M379.285 668.631H340.193C339.475 668.631 338.892 669.213 338.892 669.931V670.639C338.892 671.357 339.475 671.94 340.193 671.94H379.285C380.003 671.94 380.585 671.357 380.585 670.639V669.931C380.585 669.213 380.003 668.631 379.285 668.631Z" fill="#3CBFD4"/>
</g>
</g>
<g id="PANTS">
<path id="Vector_7" d="M455.935 628.964C437.44 634.892 418.116 630.532 418.116 630.532C412.996 618.194 404.35 592.913 404.35 537.415C404.35 527.616 392.798 509.49 383.808 488.382C379.291 518.767 374.799 549.754 374.058 555.18C372.585 565.988 365.449 629.896 365.449 629.896C342.696 634.268 330.363 629.588 330.363 629.588C326.523 570.336 346.044 543.62 345.275 533.113C344.796 526.509 338.883 481.501 338.886 450.942C338.886 418.657 351.44 400.71 367.632 386.52L367.798 386.628C369.271 387.55 380.752 393.863 410.896 390.647C413.356 409.562 428.296 463.21 438.981 546.47C443.959 585.27 455.935 628.964 455.935 628.964Z" fill="#3CBFD4"/>
<path id="&#60;&#208;&#154;&#208;&#190;&#208;&#189;&#209;&#130;&#209;&#131;&#209;&#128;&#62;" d="M391.578 442.449C389.25 457.251 387.095 473.372 383.962 494.578" stroke="white" stroke-width="4" stroke-miterlimit="10"/>
</g>
<g id="BLOUSE">
<path id="Vector_8" d="M427.525 342.349C427.525 342.349 425.778 366.679 412.797 385.02C412.797 385.02 391.582 388.639 373.133 385.02C373.133 385.02 354.854 365.797 349.615 344.963C349.615 344.963 332.209 309.659 340.083 303.669C347.958 297.68 367.55 287.373 367.55 287.373L407.401 289.329C412.32 292.317 422.808 297.203 433.29 302.692L427.525 342.349Z" fill="#F0E1D4"/>
<path id="Vector_9" d="M395.231 334.272C396.819 334.272 398.106 332.985 398.106 331.397C398.106 329.809 396.819 328.522 395.231 328.522C393.643 328.522 392.356 329.809 392.356 331.397C392.356 332.985 393.643 334.272 395.231 334.272Z" fill="#F0E1D4" stroke="white" stroke-width="5" stroke-linejoin="round"/>
<path id="Vector_10" d="M395.231 345.907C396.819 345.907 398.106 344.619 398.106 343.032C398.106 341.444 396.819 340.157 395.231 340.157C393.643 340.157 392.356 341.444 392.356 343.032C392.356 344.619 393.643 345.907 395.231 345.907Z" fill="#F0E1D4" stroke="white" stroke-width="5" stroke-linejoin="round"/>
<path id="Vector_11" d="M395.231 357.538C396.819 357.538 398.106 356.251 398.106 354.663C398.106 353.075 396.819 351.788 395.231 351.788C393.643 351.788 392.356 353.075 392.356 354.663C392.356 356.251 393.643 357.538 395.231 357.538Z" fill="#F0E1D4" stroke="white" stroke-width="5" stroke-linejoin="round"/>
</g>
<g id="RIGHT HAND">
<path id="Vector_12" d="M433.265 302.688C443.744 308.18 474.577 378.849 461.746 386.32C435.101 401.857 427.525 342.352 427.525 342.352L433.265 302.688Z" fill="#F0E1D4"/>
<path id="Vector_13" d="M450.536 388.525C454.133 390.063 463.416 387.231 473.732 380.472C484.047 373.714 472.345 369.253 472.345 369.253C472.345 369.253 458.632 363.749 450.265 367.715C441.899 371.682 443.646 385.558 450.536 388.525Z" fill="#D48845"/>
<path id="Vector_14" d="M506.222 354.048H449.9L388.098 394.502H444.417L506.222 354.048Z" fill="white" stroke="#3F4D79" stroke-width="5" stroke-linejoin="round"/>
<path id="Vector_15" d="M485.397 370.738C485.397 369.268 476.056 360.622 472.483 363.888C470.986 365.253 470.9 376.976 471.038 379.092C471.475 385.825 485.32 378.277 485.397 370.738Z" fill="#E49647"/>
</g>
<g id="LEFT HAND">
<path id="Vector_16" d="M340.059 303.669C336.858 306.209 302.876 357.944 314.901 381.767C328.467 408.658 383.578 386.33 383.578 386.33C383.578 386.33 376.586 384.177 381.078 375.193C381.078 375.193 358.276 363.06 339.936 366.679C339.936 366.679 354.159 343.096 355.657 333.863C357.154 324.629 351.54 294.562 340.059 303.669Z" fill="#F0E1D4"/>
<path id="Vector_17" d="M395.489 359.45L405.532 381.881" stroke="#722D54" stroke-width="6" stroke-miterlimit="10"/>
<g id="ARM">
<path id="Vector_18" d="M381.094 374.473C381.094 374.473 391.2 368.711 395.237 370.87C399.662 373.231 404.969 380.709 405.455 381.967C405.94 383.224 405.802 384.531 405.725 385.878C405.648 387.224 396.501 387.147 394.742 387.046C392.984 386.945 383.544 388.064 381.896 386.449C375.848 380.528 381.094 374.473 381.094 374.473Z" fill="#E49647"/>
<path id="Vector_19" d="M394.739 387.046C396.51 387.148 404.597 387.249 405.627 386.29C407.671 384.393 406.5 381.558 405.476 380.448C404.538 379.427 399.548 373.231 395.234 370.879C395.234 370.879 400.237 379.584 394.739 387.055" fill="#D48845"/>
</g>
</g>
<g id="HEAD">
<g id="HAIR">
<path id="Vector_20" d="M378.114 222.567C378.114 222.567 373.622 215.33 378.114 211.588C382.606 207.846 384.454 201.77 392.587 201.73C400.987 201.69 404.338 208.239 408.185 207.594C413.412 206.717 417.077 205.032 423.715 208.535C429.028 211.339 429.25 221.851 434.637 221.319C438.923 220.898 443.682 221.168 446.115 225.931C447.959 229.538 445.992 239.282 448.734 241.901C451.477 244.521 457.958 245.376 458.469 252.131C459.145 261.26 449.614 262.603 452.104 269.85C455.382 279.382 450.757 285.365 442.622 286.454C436.9 287.213 426.845 278.706 423.159 284.581C420.013 289.59 413.424 291.819 405.325 288.578C397.227 285.338 392.224 286.331 387.234 288.452C382.244 290.574 376.128 293.566 372.011 289.947C367.894 286.328 362.925 286.226 357.443 288.492C349.836 291.638 341.673 286.466 342.684 279.594C343.524 273.915 335.729 273.199 334.825 266.742C333.645 258.308 346.054 256.137 342.435 252.518C338.816 248.899 338.946 238.319 349.667 236.917C359.838 235.595 357.661 229.258 360.53 224.926C362.95 221.304 370.504 216.704 378.114 222.567Z" fill="#722D54"/>
<path id="Vector_21" d="M338.078 250.532C334.696 246.701 335.775 234.912 346.562 234.178C356.794 233.483 355.005 227.023 358.138 222.887C360.776 219.41 369.619 215.259 377.988 222.521" stroke="#722D54" stroke-width="3" stroke-miterlimit="10"/>
</g>
<g id="NECK">
<path id="Vector_22" d="M379.566 253.671C379.489 260.128 379.892 277.934 367.525 287.37C367.525 287.37 389.731 298.522 394.742 323.228C394.742 323.228 398.269 297.188 407.376 289.326C407.376 289.326 396.584 283.207 398.955 253.659L379.566 253.671Z" fill="#E49647"/>
<path id="Vector_23" d="M400.987 279.259C399.45 280.649 397.716 281.442 395.834 281.442C388.043 281.442 380.285 269.574 379.538 256.884C379.562 255.636 379.562 254.548 379.575 253.671H398.964C397.989 265.684 399.204 273.829 400.987 279.259Z" fill="#D48845"/>
</g>
<path id="HEAD_2" d="M378.865 247.829C378.951 244.582 380.094 227.616 393.835 228.24C407.576 228.865 409.805 242.713 408.575 253.819C407.346 264.925 400.581 272.408 395.849 271.91C391.117 271.412 378.489 261.555 378.865 247.829Z" fill="#E49647"/>
</g>
</g>
<g id="character 2" clip-path="url(#clip15)">
<g id="Layer 2">
<g id="&#208;&#161;&#208;&#187;&#208;&#190;&#208;&#185; 1">
<g id="2">
<g id="CHAIR">
<path id="Vector_24" d="M478.253 673.103C477.806 673.103 477.376 672.929 477.055 672.619C476.733 672.308 476.545 671.884 476.531 671.437L484.2 564.151H494.863L479.976 671.437C479.962 671.884 479.774 672.308 479.452 672.619C479.131 672.929 478.701 673.103 478.253 673.103V673.103Z" fill="white" stroke="#3F4D79" stroke-width="5" stroke-miterlimit="10" stroke-linecap="round"/>
<path id="Vector_25" d="M544.511 673.103C544.063 673.103 543.633 672.929 543.312 672.619C542.99 672.308 542.803 671.884 542.788 671.437L527.901 564.151H538.564L546.233 671.437C546.219 671.884 546.031 672.308 545.709 672.619C545.388 672.929 544.958 673.103 544.511 673.103V673.103Z" fill="white" stroke="#3F4D79" stroke-width="5" stroke-miterlimit="10" stroke-linecap="round"/>
<path id="Vector_26" d="M575.243 673.103C574.795 673.103 574.366 672.929 574.044 672.619C573.723 672.308 573.535 671.884 573.52 671.437L558.633 564.151H569.296L576.965 671.437C576.951 671.884 576.763 672.308 576.441 672.619C576.12 672.929 575.69 673.103 575.243 673.103V673.103Z" fill="white" stroke="#3F4D79" stroke-width="5" stroke-miterlimit="10" stroke-linecap="round"/>
<path id="Vector_27" d="M579.184 541.147L576.105 553.496H565.984L569.062 541.147H579.184Z" fill="white" stroke="#3F4D79" stroke-width="5" stroke-miterlimit="10" stroke-linecap="round"/>
<path id="Vector_28" d="M539.675 541.147L536.596 553.496H526.474L529.553 541.147H539.675Z" fill="white" stroke="#3F4D79" stroke-width="5" stroke-miterlimit="10" stroke-linecap="round"/>
<path id="Vector_29" d="M577.476 552.647H471.676C468.188 552.647 465.36 555.474 465.36 558.962C465.36 562.449 468.188 565.276 471.676 565.276H577.476C580.964 565.276 583.791 562.449 583.791 558.962C583.791 555.474 580.964 552.647 577.476 552.647Z" fill="#FFB000"/>
<path id="Vector_30" d="M621.002 454.376L601.816 531.347C601.058 534.385 599.306 537.084 596.837 539.012C594.369 540.94 591.327 541.987 588.195 541.987H518.273C514.402 541.987 511.709 536.137 513.043 530.619L532.156 451.579C533.064 447.823 535.418 445.331 538.054 445.331H614.021C617.106 445.331 622.054 449.997 621.002 454.376Z" fill="#FFB000"/>
</g>
<g id="CHARACTER">
<g id="LEGS">
<g id="LEFT LEG">
<g id="FOOT_5">
<path id="Vector_31" d="M400.335 654.531C400.335 656.482 406.371 662.457 404.339 672.443C404.339 672.443 389.446 672.466 382.141 672.511C373.457 672.564 354.987 672.564 354.987 672.564C354.987 672.564 353.194 664.605 362.706 663.503C372.219 662.4 384.278 652.346 384.278 652.346L400.335 654.531Z" fill="#E2631E"/>
<path id="Vector_32" d="M404.979 673.356C396.295 673.41 354.987 673.41 354.987 673.41" stroke="#3F4D79" stroke-width="7" stroke-miterlimit="10" stroke-linecap="round"/>
<path id="Vector_33" d="M384.56 652.346C385.502 649.721 386.858 641.147 386.858 641.147L402.159 642.489C402.159 642.489 399.622 648.221 400.053 654.249C400.2 656.282 383.525 655.225 384.56 652.346Z" fill="#FFC0B7"/>
</g>
<path id="PANT" d="M538.979 545.362C521.966 552.315 442.212 547.925 442.212 547.925C442.212 547.925 440.58 610.406 410.589 642.751C410.589 642.751 389.903 642.058 384.233 640.594C384.233 640.594 399.909 547.085 411.116 528.716C417.037 518.992 483.701 504.153 498.074 502.904C502.355 505.756 506.899 508.192 511.644 510.178C524.71 515.69 538.11 517.664 548.187 518.247C549.735 527.281 549.98 540.868 538.979 545.362Z" fill="#3C4564"/>
</g>
<g id="RIGHT LEG">
<g id="FOOT_6">
<path id="Vector_34" d="M411.895 654.531C411.895 656.482 417.931 662.457 415.898 672.443C415.898 672.443 401.006 672.466 393.701 672.511C385.017 672.564 366.547 672.564 366.547 672.564C366.547 672.564 364.753 664.605 374.266 663.503C383.779 662.4 395.838 652.346 395.838 652.346L411.895 654.531Z" fill="#FE7523"/>
<path id="Vector_35" d="M416.538 673.357C407.855 673.41 366.547 673.41 366.547 673.41" stroke="#3F4D79" stroke-width="7" stroke-miterlimit="10" stroke-linecap="round"/>
<path id="Vector_36" d="M396.12 652.346C397.062 649.721 398.418 641.147 398.418 641.147L415.974 643.053C415.974 643.053 412.788 645.974 411.613 654.249C411.325 656.265 395.085 655.225 396.12 652.346Z" fill="#FFCFC9"/>
</g>
<path id="PANT_2" d="M551.291 552.713C534.279 559.674 454.525 555.275 454.525 555.275C454.525 555.275 456.171 609.691 418.498 643.152C418.498 643.152 399.647 641.796 393.969 640.333C393.969 640.333 418.114 551.982 423.421 536.066C426.325 527.354 500.392 510.556 511.636 510.178C530.185 518.005 549.388 518.679 558.845 518.425C560.534 524.149 566.096 546.665 551.291 552.713Z" fill="#3F4D79"/>
</g>
</g>
<g id="LEFT HAND_2">
<path id="Vector_37" d="M502.656 479.319C483.359 483.168 437.002 481.518 417.567 477.613C416.513 478.428 415.406 479.172 414.252 479.838C411.714 481.296 406.828 482.474 405.669 482.409C404.511 482.344 397.4 481.253 397.4 481.253C397.4 481.253 397.146 480.45 398.186 479.39C399.227 478.33 406.853 479.173 404.065 476.852C402.824 475.815 396.647 478.149 393.96 480.737C391.273 483.326 390.013 481.276 390.013 481.276C390.013 481.276 392.584 476.483 393.506 475.614C394.428 474.746 400.555 471.064 404.705 470.503C407.711 470.097 414.94 470.655 418.766 471.577C432.945 468.21 460.15 463.919 479.519 464.074C482.093 453.36 485.22 440.244 486.052 436.365L499.822 445.387L502.656 479.319Z" fill="#FFC0B7"/>
<path id="Vector_38" d="M486.052 436.365L485.183 440.213C485.183 440.213 488.75 449.25 500.262 452.233L499.822 445.381L486.052 436.365Z" fill="#FAB6AD"/>
</g>
<g id="T SHIRT">
<path id="Vector_39" d="M569.919 460.446C569.919 460.446 568.89 460.381 567.156 460.203C565.183 474.777 563.446 487.019 563.446 489.706C563.446 496.927 564.856 518.073 564.856 518.073C564.856 518.073 526.832 522.338 497.831 502.738C497.831 502.738 504.553 493.69 501.065 465.18C498.748 446.213 499.822 445.381 499.822 445.381C499.822 445.381 492.717 441.677 482.64 433.695C482.64 433.695 487.87 407.84 496.213 402.768C504.556 397.696 517.503 395.33 526.099 392.094C534.696 388.857 547.764 385.496 547.764 385.496C551.252 388.358 567.81 396.453 571.918 401.308C577.771 406.673 585.796 427.951 569.919 460.446Z" fill="#CEEFF7"/>
<path id="Vector_40" d="M536.489 451.942C536.489 451.942 540.045 446.103 544.333 424.816" stroke="#84D7EC" stroke-width="5" stroke-miterlimit="10"/>
<path id="Vector_41" d="M499.506 444.843C499.1 439.695 499.647 430.06 500.313 424.706" stroke="#84D7EC" stroke-width="5" stroke-miterlimit="10"/>
</g>
<g id="RIGHT HAND_2">
<path id="Vector_42" d="M567.151 460.211C567.151 460.211 552.081 498.296 545.258 498.928C523.035 500.983 485.897 479.821 477.873 479.572L474.354 479.46C472.38 480.618 469.871 481.605 467.748 480.982C463.468 479.73 460.04 476.637 457.203 477.965C454.367 479.293 451.094 481.842 449.295 481.631C445.531 481.177 443.36 479.178 443.36 479.178C443.36 479.178 445.703 476.623 448.068 474.196C446.391 474.853 443.839 476.657 442.534 477.277C440.56 478.211 439.545 476.542 439.545 476.542C439.545 476.542 443.946 472.654 445.466 471.732C446.935 470.843 451.057 469.91 453.138 469.865C455.655 469.527 469.465 467.641 476.581 468.391C484.741 468.089 501.111 468.672 529.948 474.094L538.212 452.898C538.212 452.898 550.761 458.477 567.151 460.211Z" fill="#FFCFC9"/>
<path id="Vector_43" d="M567.151 460.206C567.151 460.206 565.789 463.649 563.697 468.481C556.843 466.457 545.731 462.157 537.758 454.051L538.212 452.884C538.212 452.884 550.764 458.469 567.151 460.206Z" fill="#FAB6AD"/>
</g>
<g id="HEAD_3">
<g id="NECK_2">
<path id="Vector_44" d="M532.691 360.096C532.691 360.096 533.819 376.167 547.756 385.496C547.756 385.496 540.411 401.567 523.477 402.678C506.544 403.789 519.313 394.279 519.313 394.279C519.313 394.279 514.895 379.66 514.145 376.175L532.691 360.096Z" fill="#FFCFC9"/>
<path id="Vector_45" d="M532.641 368.441C531.795 375.792 525.31 386.328 517.266 387.408C516.003 383.108 514.548 378.042 514.148 376.175L531.755 360.902L532.302 361.99C532.302 361.99 532.821 366.891 532.641 368.441Z" fill="#FAB6AD"/>
</g>
<path id="HEAD_4" d="M531.366 361.246C531.366 361.246 531.629 366.285 530.952 367.692C527.836 374.176 518.067 381.62 510.471 381.62C504.593 381.62 497.705 363.708 497.085 357.107C496.464 350.507 497.333 340.05 513.268 338.806C529.204 337.563 530.326 354.119 530.326 354.119L531.366 361.246Z" fill="#FFCFC9"/>
<g id="HAIR_2">
<path id="Vector_46" d="M484.882 350.386C484.882 350.386 481.919 344.499 486.873 340.176C492.717 335.07 498.074 337.436 501.069 334.199C504.063 330.962 510.319 324.049 519.62 325.23C527.96 326.291 530.394 332.082 530.394 332.082C530.394 332.082 535.553 329.908 540.033 335.747C544.513 341.586 533.692 365.915 533.692 365.915C533.692 365.915 530.78 356.222 530.326 354.135C529.308 349.464 520.117 350.566 520.864 341.434C520.864 341.434 518.374 347.659 508.912 347.541C506.093 347.507 502.45 346.734 498.833 346.199C496.831 349.743 496.777 353.896 497.085 357.121C497.085 357.107 488.623 356.978 484.882 350.386Z" fill="#FE7523"/>
<path id="Vector_47" d="M530.137 332.082C530.137 332.082 534.315 328.109 538.75 331.907" stroke="#FE7523" stroke-width="3" stroke-miterlimit="10"/>
<path id="Vector_48" d="M520.864 340.907C520.864 340.907 519.13 349.289 509.682 349.836" stroke="#FE7523" stroke-width="3" stroke-miterlimit="10"/>
</g>
</g>
</g>
<g id="TABLE">
<path id="Vector_49" d="M359.893 487.452H511.608C513.22 487.452 514.528 489.324 514.528 491.636V492.02C514.528 494.329 513.22 496.201 511.608 496.201H397.391" fill="white"/>
<path id="Vector_50" d="M361.584 486.833H511.608C513.22 486.833 514.529 488.705 514.529 491.017V491.401C514.529 493.71 513.22 495.582 511.608 495.582H397.955" stroke="#3CBFD4" stroke-width="5" stroke-miterlimit="10" stroke-linecap="round"/>
<path id="Vector_51" d="M504.477 674.964L475.733 495.864H485.629L514.091 674.682L504.477 674.964Z" fill="white"/>
<path id="Vector_52" d="M487.301 504.959L476.626 500.975L475.73 495.864H485.632L487.301 504.959Z" fill="#CEEFF7"/>
<path id="Vector_53" d="M503.913 673.836L475.733 495.864H485.629L513.528 673.554" stroke="#3CBFD4" stroke-width="7" stroke-miterlimit="10" stroke-linecap="round"/>
</g>
<g id="LAPTOP">
<path id="Vector_54" d="M468.216 479.46H382.835C381.703 479.461 380.599 479.114 379.671 478.466C378.743 477.819 378.037 476.902 377.647 475.84L357.97 422.217C357.724 421.552 357.642 420.837 357.732 420.134C357.822 419.431 358.081 418.76 358.486 418.178C358.892 417.596 359.432 417.121 360.061 416.794C360.69 416.466 361.388 416.295 362.097 416.296H448.607C449.883 416.297 451.129 416.691 452.175 417.424C453.22 418.156 454.015 419.193 454.451 420.393L473.404 472.034C473.71 472.869 473.809 473.765 473.695 474.647C473.58 475.529 473.254 476.37 472.745 477.099C472.236 477.828 471.558 478.423 470.77 478.834C469.981 479.245 469.105 479.46 468.216 479.46Z" fill="white" stroke="#FFB000" stroke-width="5" stroke-miterlimit="10"/>
<path id="Vector_55" d="M465.503 479.46H382.991C381.884 479.449 380.807 479.095 379.91 478.446C379.012 477.798 378.337 476.888 377.978 475.84L358.964 422.217C357.946 419.35 359.999 416.296 362.953 416.296H446.553C447.8 416.31 449.012 416.71 450.022 417.441C451.031 418.172 451.79 419.199 452.192 420.379L470.519 472.023C471.793 475.654 469.213 479.46 465.503 479.46Z" fill="white" stroke="#FFB000" stroke-width="5" stroke-miterlimit="10"/>
<path id="Vector_56" d="M504.655 479.46H381.814C380.246 479.46 378.975 480.731 378.975 482.299V482.446C378.975 484.014 380.246 485.285 381.814 485.285H504.655C506.223 485.285 507.494 484.014 507.494 482.446V482.299C507.494 480.731 506.223 479.46 504.655 479.46Z" fill="white" stroke="#FFB000" stroke-width="5" stroke-miterlimit="10"/>
</g>
</g>
</g>
</g>
</g>
<g id="character 1" clip-path="url(#clip16)">
<g id="Layer 2_2">
<g id="&#208;&#161;&#208;&#187;&#208;&#190;&#208;&#185; 1_2">
<g id="4">
<g id="CHAIR_2">
<path id="Vector_57" d="M181.102 527.669V676.813" stroke="#FFB000" stroke-width="6" stroke-miterlimit="10"/>
<path id="Vector_58" d="M246.997 527.669V676.813" stroke="#FFB000" stroke-width="6" stroke-miterlimit="10"/>
<path id="Vector_59" d="M180.465 652.836H246.19" stroke="#FFB000" stroke-width="6" stroke-miterlimit="10"/>
<path id="Vector_60" d="M257.468 507.68H169.995C167.057 507.68 164.675 510.062 164.675 513V522.349C164.675 525.287 167.057 527.669 169.995 527.669H257.468C260.406 527.669 262.788 525.287 262.788 522.349V513C262.788 510.062 260.406 507.68 257.468 507.68Z" fill="white" stroke="#6562CF" stroke-width="6" stroke-miterlimit="10"/>
</g>
<g id="CHARACTER_2">
<g id="HOOD">
<path id="Vector_61" d="M245.389 363.683C250.811 362.162 258.309 345.324 250.094 336.206C241.879 327.087 224.471 326.812 209.693 329.025C196.033 331.071 178.09 338.995 184.928 356.086C194.652 380.386 245.389 363.683 245.389 363.683Z" fill="#FFB819"/>
<path id="Vector_62" d="M237.215 352.217C242.34 351.134 251.144 342.608 243.406 336.119C235.668 329.63 223.75 328.999 211.057 331.168C198.364 333.336 185.21 337.823 191.248 350.125C197.285 362.427 237.215 352.217 237.215 352.217Z" fill="#F49C00"/>
</g>
<g id="LEGS_2">
<g id="RIGHT FOOT_2">
<path id="Vector_63" d="M267.46 675.33C264.145 677.371 243.871 677.252 240.043 675.33C236.216 673.409 237.113 666.913 236.475 662.577C235.838 658.24 226.783 650.085 226.274 647.277C225.765 644.468 235.582 638.35 237.286 635.858C235.883 639.996 249.927 640.903 251.058 638.222C250.507 648.042 257.723 663.653 263.642 665.062C267.367 665.952 270.775 673.29 267.46 675.33Z" fill="#DBDAFF"/>
<path id="Vector_64" d="M254.081 627.483L251.052 638.222C249.927 640.902 235.883 639.996 237.279 635.858C238.675 631.72 238.147 624.53 238.147 624.53L254.081 627.483Z" fill="#FFCFC9"/>
<path id="Vector_65" d="M226.277 647.289C226.79 650.095 235.841 658.255 236.482 662.592C237.122 666.929 236.225 673.431 240.05 675.343C243.874 677.255 264.151 677.383 267.466 675.343" stroke="#6562CF" stroke-width="7" stroke-miterlimit="10" stroke-linecap="round"/>
<path id="Vector_66" d="M251.839 665.049C251.839 665.049 258.565 662.044 265.26 664.408" stroke="white" stroke-width="6" stroke-miterlimit="10" stroke-linecap="round"/>
</g>
<g id="LEFT FOOT_2">
<path id="Vector_67" d="M175.073 675.33C178.388 677.371 196.42 677.252 200.248 675.33C204.075 673.409 206.381 666.913 207.019 662.576C207.656 658.24 213.828 648.484 214.337 645.675C214.846 642.866 205.03 636.748 203.326 634.256C204.729 638.394 191.004 640.902 189.874 638.221C190.425 648.042 184.807 663.652 178.891 665.062C175.163 665.952 171.758 673.29 175.073 675.33Z" fill="#DBDAFF"/>
<path id="Vector_68" d="M183.007 626.842L189.88 638.222C191.004 640.903 204.728 638.395 203.332 634.257C201.935 630.119 201.503 623.569 201.503 623.569L183.007 626.842Z" fill="#FFCFC9"/>
<path id="Vector_69" d="M214.337 645.688C213.828 648.493 207.656 658.256 207.019 662.593C206.381 666.929 204.072 673.431 200.245 675.343C196.417 677.255 178.388 677.383 175.07 675.343" stroke="#6562CF" stroke-width="7" stroke-miterlimit="10" stroke-linecap="round"/>
<path id="Vector_70" d="M190.694 665.049C190.694 665.049 183.984 662.044 177.274 664.408" stroke="white" stroke-width="6" stroke-miterlimit="10" stroke-linecap="round"/>
</g>
<path id="PANTS_2" d="M181.165 464.509C181.165 464.509 114.463 497.178 114.463 517.272C114.463 553.119 174.122 628.732 184.368 627.739C194.614 626.746 204.706 624.578 204.312 620.241C203.918 615.904 182.462 547.908 165.788 527.778C165.788 527.778 171.874 518.198 209.901 518.618C228.228 518.819 244.207 520.065 244.601 520.658C244.995 521.25 224.676 560.905 235.044 622.22C235.95 627.563 258.293 629.805 260.458 626.849C262.623 623.892 297.304 519.774 293.957 511.488C290.61 503.202 255.843 473.528 238.887 464.499C226.674 458 181.165 464.509 181.165 464.509Z" fill="#3F4D79"/>
</g>
<g id="HOODY">
<path id="Vector_71" d="M162.118 360.912C153.659 365.557 141.017 407.203 141.017 407.203C141.017 407.203 110.558 369.816 109.149 369.464C107.74 369.112 99.5563 380.033 99.5563 380.033C99.5563 380.033 115.459 451.034 140.265 452.613C150.677 453.276 159.482 447.236 166.711 438.409C169.914 449.09 172.905 457.898 172.905 457.898C174.186 462.382 150.28 474.729 155.734 478.121C155.734 478.121 174.346 472.067 207.188 480.536C246.455 490.67 265.439 482.983 261.727 480.036C258.015 477.089 252.185 467.51 250.171 461.101L253.793 426.613C253.793 426.613 266.47 458.788 285.633 458.788C308.492 458.788 329.384 388.905 329.384 388.905C321.258 388.675 314.526 382.871 314.526 382.871C305.936 388.905 288.057 410.044 288.057 410.044C288.057 410.044 276.915 376.36 271.575 368.699C266.236 361.037 248.835 355 237.215 352.217L191.248 350.125C188.163 349.536 169.315 355.996 162.118 360.912Z" fill="#FFB000"/>
<path id="Vector_72" d="M288.057 408.635C282.244 415.319 276.992 427.212 276.992 427.212" stroke="#F49C00" stroke-width="6" stroke-miterlimit="10"/>
<path id="Vector_73" d="M251.541 357.293C229.224 355.407 206.817 369.445 206.817 369.445C206.817 369.445 187.119 365.032 183.18 351.919" stroke="#F49C00" stroke-width="6" stroke-miterlimit="10"/>
<path id="Vector_74" d="M173.546 457.898C173.546 457.898 161.227 422.513 159.507 407.591" stroke="#F49C00" stroke-width="6" stroke-miterlimit="10" stroke-linecap="round"/>
</g>
<g id="ARMS">
<g id="RIGHT">
<path id="Vector_75" d="M328.74 363.411C328.442 365.317 326.37 368.273 328.419 368.25C329.476 368.25 337.118 367.004 338.054 369.817C338.449 371.153 338.378 372.584 337.852 373.875C339.527 376.376 338.246 378.419 338.246 378.419C339.258 379.976 339.527 381.991 338.822 382.878C338.822 382.878 340.594 386.961 338.903 387.909C333.663 390.856 325.306 391.468 321.258 390.42C318.417 389.687 315.009 387.932 314.138 381.885C313.779 379.409 316.245 372.917 318.129 370.239C318.897 369.138 321.713 364.743 322.664 363.539C324.02 361.776 324.944 359.719 325.361 357.534C325.361 357.534 329.572 358.088 328.74 363.411Z" fill="#FFCFC9"/>
<path id="Vector_76" d="M335.591 369.442C335.777 370.723 327.971 370.992 326.623 371.286C324.701 371.703 324.951 375.806 327.443 375.405C330.833 375.251 334.201 374.765 337.497 373.954" stroke="#FAB6AD" stroke-width="4" stroke-miterlimit="10" stroke-linecap="round"/>
<path id="Vector_77" d="M337.737 378.461C329.48 380.127 327.277 379.973 327.277 379.973C326.072 380.21 324.522 375.953 327.443 375.406" stroke="#FAB6AD" stroke-width="4" stroke-miterlimit="10" stroke-linecap="round"/>
<path id="Vector_78" d="M337.942 382.733C330.172 384.441 327.481 384.245 327.481 384.245C326.331 384.383 324.893 380.335 327.241 380.056" stroke="#FAB6AD" stroke-width="4" stroke-miterlimit="10" stroke-linecap="round"/>
<path id="Vector_79" d="M329.656 384.178C329.656 384.178 326.879 383.919 326.921 385.648C326.998 388.723 328.487 389.053 335.518 387.762" stroke="#FAB6AD" stroke-width="4" stroke-miterlimit="10" stroke-linecap="round"/>
</g>
<g id="LEFT">
<path id="ARM_2" d="M98.0318 353.959C98.0958 355.881 99.7773 359.039 97.7627 358.764C96.7186 358.623 89.336 356.48 88.0741 359.135C87.5207 360.404 87.4167 361.825 87.7794 363.161C85.8257 365.422 86.8378 367.594 86.8378 367.594C85.6528 369.006 85.1435 370.96 85.7296 371.921C85.7296 371.921 83.4876 375.729 85.0378 376.869C89.8421 380.412 98.0093 382.029 102.128 381.488C105.011 381.11 108.588 379.793 110.183 373.939C110.824 371.543 109.194 364.859 107.666 361.976C107.041 360.794 104.799 356.121 104.005 354.818C102.888 352.914 102.23 350.775 102.083 348.572C102.083 348.572 97.8588 348.61 98.0318 353.959Z" fill="#FFCFC9"/>
<g id="FINGERS">
<path id="Vector_80" d="M88.3912 377.145C95.1652 379.271 96.6737 379.124 97.1253 376.104C97.2662 375.143 96.4495 374.704 95.7096 374.502C96.0516 374.569 96.3969 374.617 96.7442 374.646C97.7755 374.899 99.521 371.386 97.974 370.415C98.6146 370.095 99.2936 367.799 99.2904 365.759C100.485 364.932 100.572 362.482 99.1815 361.992C97.8716 361.534 90.2136 360.314 90.5339 359.077L88.3912 377.145Z" fill="#FFCFC9"/>
<path id="Vector_81" d="M88.5128 363.292C91.5441 364.462 94.6769 365.35 97.8715 365.944C100.277 366.639 101.023 362.626 99.1814 361.982C97.8715 361.524 91.7445 359.529 90.5338 359.071" stroke="#FAB6AD" stroke-width="3" stroke-miterlimit="10" stroke-linecap="round"/>
<path id="Vector_82" d="M87.7313 367.706C95.668 370.348 97.4809 370.467 97.4809 370.467C98.6371 370.845 100.684 366.841 97.8716 365.944" stroke="#FAB6AD" stroke-width="3" stroke-miterlimit="10" stroke-linecap="round"/>
<path id="Vector_83" d="M86.6328 371.876C94.0827 374.506 96.7604 374.637 96.7604 374.637C97.8782 374.916 99.438 370.717 96.6963 370.355" stroke="#FAB6AD" stroke-width="3" stroke-miterlimit="10" stroke-linecap="round"/>
<path id="Vector_84" d="M94.6048 374.32C94.6048 374.32 97.3753 374.403 97.1255 376.104C96.6739 379.124 95.1685 379.268 88.3944 377.145" stroke="#FAB6AD" stroke-width="3" stroke-miterlimit="10" stroke-linecap="round"/>
</g>
</g>
</g>
<g id="HEAD_5">
<g id="NECK_3">
<path id="Vector_85" d="M227.465 322.267C227.465 322.267 222.588 344.091 237.215 352.217C237.215 352.217 223.763 354.539 206.57 368.699C206.57 368.699 193.336 357.556 191.248 350.122C191.248 350.122 204.7 345.481 203.319 322.257L227.465 322.267Z" fill="#FFCFC9"/>
<path id="Vector_86" d="M227.466 322.283H203.319C204.712 345.5 191.248 350.148 191.248 350.148C191.248 350.148 218.097 350.148 225.691 326.209L227.466 322.283Z" fill="#FAB6AD"/>
</g>
<path id="HEAD_6" d="M228.388 322.053C228.388 322.053 221.217 336.033 204.081 336.039C188.797 336.039 186.466 291.177 209.229 290.559C230.918 289.969 228.125 315.634 228.125 315.634C228.125 315.634 232.03 313.363 233.449 315.727C234.867 318.091 228.388 322.053 228.388 322.053Z" fill="#FFCFC9"/>
<g id="HAIR_3">
<path id="Vector_87" d="M218.347 292.234C218.347 292.234 218.101 300.001 207.349 299.882C198.012 299.78 192.894 305.065 192.394 308.87" stroke="#3F4D79" stroke-width="3" stroke-miterlimit="10" stroke-linecap="round"/>
<path id="Vector_88" d="M247.829 307.572C247.829 316.034 237.615 323.35 226.306 328.314C225.637 328.609 224.554 328.676 223.183 328.567C225.249 326.682 227.006 324.484 228.388 322.052C228.388 322.052 234.829 318.036 233.436 315.727C232.042 313.417 228.113 315.631 228.113 315.631C228.113 315.631 230.069 297.743 218.094 292.186C218.001 292.359 214.891 297.842 205.699 298.133C196.955 298.406 194.569 301.74 193.57 305.225C193.538 305.346 193.506 305.465 193.477 305.587C192.35 310.222 192.081 315.024 192.683 319.756L192.631 319.737C191.783 318.705 180.185 304.008 183.212 296.125C186.501 287.558 207.525 275.473 224.356 278.465C233.756 280.14 247.826 303.124 247.829 307.572Z" fill="#3F4D79"/>
</g>
</g>
</g>
<g id="COMPUTER">
<g id="COMPUTER_2">
<path id="Vector_89" d="M171.599 428.855H42.6038C40.8337 428.852 39.109 428.295 37.6726 427.26C36.2361 426.226 35.1603 424.767 34.5966 423.089L7.25707 341.682C6.95674 340.788 6.87359 339.835 7.01448 338.902C7.15536 337.968 7.51624 337.082 8.06729 336.316C8.61835 335.55 9.34377 334.926 10.1836 334.496C11.0235 334.066 11.9536 333.842 12.8973 333.842H141.892C143.662 333.845 145.387 334.402 146.823 335.437C148.259 336.471 149.335 337.929 149.899 339.607L177.223 420.995C177.527 421.889 177.613 422.843 177.475 423.777C177.336 424.712 176.978 425.6 176.428 426.368C175.878 427.136 175.154 427.762 174.314 428.195C173.474 428.627 172.543 428.853 171.599 428.855V428.855Z" fill="#C7BFFF"/>
<path id="Vector_90" d="M171.014 431H40.9428C39.1581 430.998 37.419 430.446 35.9706 429.423C34.5222 428.399 33.4374 426.956 32.8691 425.295L5.31182 344.758C5.00909 343.873 4.92521 342.93 5.06709 342.007C5.20898 341.084 5.57257 340.208 6.12785 339.45C6.68312 338.692 7.41415 338.074 8.26056 337.648C9.10698 337.222 10.0445 337 10.9957 337H141.06C142.845 337.002 144.584 337.554 146.033 338.577C147.481 339.601 148.566 341.044 149.134 342.705L176.688 423.242C176.991 424.126 177.075 425.068 176.933 425.99C176.792 426.913 176.429 427.789 175.875 428.546C175.321 429.304 174.591 429.922 173.746 430.348C172.901 430.775 171.964 430.998 171.014 431Z" fill="white"/>
<path id="Vector_91" d="M171.599 428.592H42.6038C40.8336 428.59 39.1087 428.032 37.6721 426.998C36.2356 425.964 35.1599 424.505 34.5966 422.827L7.25707 341.436C6.95674 340.541 6.87359 339.588 7.01448 338.655C7.15536 337.722 7.51624 336.836 8.06729 336.07C8.61835 335.304 9.34377 334.68 10.1836 334.249C11.0235 333.819 11.9536 333.595 12.8973 333.595H141.892C143.662 333.598 145.387 334.156 146.823 335.19C148.259 336.224 149.335 337.683 149.899 339.36L177.236 420.751C177.536 421.645 177.619 422.598 177.478 423.531C177.338 424.464 176.977 425.35 176.426 426.116C175.876 426.882 175.151 427.506 174.311 427.936C173.472 428.367 172.542 428.592 171.599 428.592V428.592Z" stroke="#6562CF" stroke-width="6" stroke-miterlimit="10"/>
<path id="Vector_92" d="M115.805 403.081L125.619 427.503H104.41C104.41 427.503 108.532 408.398 115.805 403.081Z" fill="#E2E2FF"/>
<path id="Vector_93" d="M129.911 458.132C88.1486 458.132 105.71 413.442 114.015 404.16H81.8742C73.5724 413.449 51.1043 460.585 92.8632 460.585H129.911V458.132Z" fill="white" stroke="#6562CF" stroke-width="6" stroke-miterlimit="10"/>
<path id="Vector_94" d="M94.4596 382.86C96.2591 380.009 94.8065 375.86 91.215 373.593C87.6235 371.326 83.2532 371.8 81.4536 374.651C79.654 377.502 81.1067 381.651 84.6982 383.918C88.2897 386.185 92.66 385.711 94.4596 382.86Z" fill="#E2E2FF"/>
<path id="Vector_95" d="M96.511 381.13C98.3106 378.279 96.8579 374.13 93.2664 371.863C89.6749 369.596 85.3045 370.069 83.5049 372.92C81.7053 375.772 83.158 379.92 86.7495 382.187C90.341 384.454 94.7114 383.981 96.511 381.13Z" stroke="#6562CF" stroke-width="6" stroke-miterlimit="10"/>
</g>
<g id="TABLE_2">
<path id="Vector_96" d="M34.0268 460.585H225.292C228.104 460.585 230.384 462.712 230.384 465.338C230.384 467.961 228.104 470.088 225.292 470.088H34.0268V460.585Z" fill="white"/>
<path id="Vector_97" d="M34.0268 460.585H225.292C228.104 460.585 230.384 462.712 230.384 465.338C230.384 467.961 228.104 470.088 225.292 470.088H34.0268" stroke="#6562CF" stroke-width="6" stroke-miterlimit="10"/>
</g>
</g>
</g>
</g>
</g>
</g>
</g>
</g>
<defs>
<clipPath id="clip0">
<rect width="73" height="21.6" fill="white" transform="translate(210 98.2)"/>
</clipPath>
<clipPath id="clip1">
<rect width="73" height="16.8" fill="white" transform="translate(210 156.6)"/>
</clipPath>
<clipPath id="clip2">
<rect width="73" height="16.8" fill="white" transform="translate(210 206.6)"/>
</clipPath>
<clipPath id="clip3">
<rect width="73" height="16.8" fill="white" transform="translate(210 256.6)"/>
</clipPath>
<clipPath id="clip4">
<rect width="73" height="21.6" fill="white" transform="translate(246 124.2)"/>
</clipPath>
<clipPath id="clip5">
<rect width="73" height="16.8" fill="white" transform="translate(276 182.6)"/>
</clipPath>
<clipPath id="clip6">
<rect width="73" height="16.8" fill="white" transform="translate(246 232.6)"/>
</clipPath>
<clipPath id="clip7">
<rect width="73" height="16.8" fill="white" transform="translate(276 282.6)"/>
</clipPath>
<clipPath id="clip8">
<rect width="167" height="18.8" fill="white" transform="translate(314 163.1)"/>
</clipPath>
<clipPath id="clip9">
<rect width="167" height="15.6" fill="white" transform="translate(314 215.7)"/>
</clipPath>
<clipPath id="clip10">
<rect width="167" height="15.6" fill="white" transform="translate(314 262.7)"/>
</clipPath>
<clipPath id="clip11">
<rect width="167" height="15.6" fill="white" transform="translate(314 403.7)"/>
</clipPath>
<clipPath id="clip12">
<rect width="167" height="15.6" fill="white" transform="translate(314 356.7)"/>
</clipPath>
<clipPath id="clip13">
<rect width="167" height="15.6" fill="white" transform="translate(314 309.7)"/>
</clipPath>
<clipPath id="clip14">
<rect width="624" height="479" fill="white" transform="translate(0 199)"/>
</clipPath>
<clipPath id="clip15">
<rect width="267.138" height="349.869" fill="white" transform="translate(354 325.095)"/>
</clipPath>
<clipPath id="clip16">
<rect width="335.634" height="399.934" fill="white" transform="translate(4 278)"/>
</clipPath>
</defs>
</svg>
