<svg width="19" height="19" viewBox="0 0 19 19" fill="none" xmlns="http://www.w3.org/2000/svg">
<path fill-rule="evenodd" clip-rule="evenodd" d="M13.3 0H5.7C2.55198 0 0 2.55198 0 5.7V13.3C0 16.448 2.55198 19 5.7 19H13.3C16.448 19 19 16.448 19 13.3V5.7C19 2.55198 16.448 0 13.3 0ZM1.9 5.7C1.9 3.60132 3.60132 1.9 5.7 1.9H13.3C15.3987 1.9 17.1 3.60132 17.1 5.7V13.3C17.1 15.3987 15.3987 17.1 13.3 17.1H5.7C3.60132 17.1 1.9 15.3987 1.9 13.3V5.7ZM9.5 14.25C6.87665 14.25 4.75 12.1234 4.75 9.5C4.75 6.87665 6.87665 4.75 9.5 4.75C12.1234 4.75 14.25 6.87665 14.25 9.5C14.25 12.1234 12.1234 14.25 9.5 14.25ZM9.5 12.35C11.074 12.35 12.35 11.074 12.35 9.5C12.35 7.92599 11.074 6.65 9.5 6.65C7.92599 6.65 6.65 7.92599 6.65 9.5C6.65 11.074 7.92599 12.35 9.5 12.35ZM15.2 4.75C15.2 5.27467 14.7747 5.7 14.25 5.7C13.7253 5.7 13.3 5.27467 13.3 4.75C13.3 4.22533 13.7253 3.8 14.25 3.8C14.7747 3.8 15.2 4.22533 15.2 4.75Z" fill="white"/>
</svg>
