<svg width="399" height="358" viewBox="0 0 399 358" fill="none" xmlns="http://www.w3.org/2000/svg">
<path d="M147.6 182.85C148.643 182.283 149.813 181.991 151 182C152.179 181.972 153.345 182.255 154.38 182.82L204.29 211.79C204.741 212.037 205.133 212.378 205.44 212.79C205.688 213.145 205.82 213.567 205.82 214C205.727 214.877 205.175 215.639 204.37 216L185.52 226.9C183.322 228.024 180.718 228.024 178.52 226.9L128.63 198C127.83 197.637 127.285 196.874 127.2 196C127.295 195.038 127.887 194.196 128.76 193.78L147.6 182.85Z" fill="url(#paint0_linear)"/>
<path d="M120.13 199.42L170.13 228.33C172.522 229.721 175.477 229.721 177.87 228.33L196.68 217.5C198.008 216.736 198.826 215.322 198.826 213.79C198.826 212.259 198.008 210.844 196.68 210.08C181.41 201.21 161.92 190.08 146.68 181.17C144.289 179.785 141.341 179.785 138.95 181.17L120.14 192C118.817 192.766 118.001 194.178 117.999 195.707C117.997 197.236 118.809 198.651 120.13 199.42Z" fill="url(#paint1_linear)"/>
<path d="M139.4 180.82C140.441 180.27 141.603 179.989 142.78 180C143.959 179.977 145.123 180.26 146.16 180.82L196.29 209.82C196.741 210.067 197.133 210.408 197.44 210.82C197.682 211.166 197.814 211.578 197.82 212C197.727 212.877 197.175 213.639 196.37 214L177.52 224.9C175.322 226.024 172.718 226.024 170.52 224.9L120.39 195.9C119.588 195.54 119.041 194.776 118.96 193.9C119.077 192.94 119.682 192.108 120.56 191.7L139.4 180.82Z" fill="url(#paint2_linear)"/>
<path d="M140.8 181.61L138.91 182.71C138.58 182.9 138.58 183.2 138.91 183.39L139.17 183.54C139.92 183.98 139.91 184.68 139.17 185.12L128.89 191C128.038 191.431 127.032 191.431 126.18 191L125.92 190.85C125.546 190.66 125.104 190.66 124.73 190.85L122.84 192C121.52 192.76 121.52 194 122.84 194.75L172.15 223.37C173.642 224.131 175.408 224.131 176.9 223.37L194.86 213C196.18 212.24 196.18 211 194.86 210.24L145.55 181.61C144.058 180.85 142.292 180.85 140.8 181.61Z" fill="url(#paint3_linear)"/>
<path d="M187.87 214.54C187.828 214.619 187.761 214.682 187.68 214.72L179.38 219.52C179.266 219.588 179.13 219.608 179.002 219.574C178.874 219.54 178.765 219.456 178.7 219.34C178.562 219.099 178.642 218.793 178.88 218.65L187.18 213.86C187.421 213.722 187.727 213.802 187.87 214.04C187.955 214.196 187.955 214.384 187.87 214.54Z" fill="url(#paint4_linear)"/>
<path d="M96.25 213.22C95.19 212.662 94.0078 212.377 92.81 212.39C91.613 212.366 90.4306 212.656 89.38 213.23L8.37996 260.31C7.92187 260.55 7.52502 260.892 7.21996 261.31C6.97021 261.657 6.83398 262.073 6.82996 262.5C6.89673 263.414 7.4564 264.219 8.28996 264.6L68.18 299.35C70.4001 300.484 73.0298 300.484 75.25 299.35L156.25 252.26C157.06 251.903 157.617 251.14 157.71 250.26C157.611 249.289 157.023 248.437 156.15 248L96.25 213.22Z" fill="url(#paint5_linear)"/>
<path d="M149.57 245.79C151.92 247.15 151.93 249.35 149.57 250.7L70.76 296.52C68.0959 297.876 64.9442 297.876 62.28 296.52L3.78005 262.75C1.43005 261.39 1.42005 259.19 3.78005 257.83L82.59 212C85.253 210.64 88.4071 210.64 91.07 212L149.57 245.79Z" fill="url(#paint6_linear)"/>
<path d="M149.59 250.7L70.76 296.52C68.0958 297.876 64.9442 297.876 62.28 296.52L3.78 262.75C2.77899 262.31 2.09695 261.359 2 260.27V263.53C2.09854 264.613 2.77582 265.558 3.77 266L62.27 299.77C64.9342 301.126 68.0858 301.126 70.75 299.77L149.58 254C150.555 253.56 151.222 252.634 151.33 251.57V248.27C151.223 249.332 150.561 250.257 149.59 250.7Z" fill="url(#paint7_linear)"/>
<path d="M86.8201 214C87.7739 213.976 88.7189 214.189 89.5701 214.62L146.34 247.39C146.648 247.569 146.838 247.899 146.838 248.255C146.838 248.612 146.648 248.941 146.34 249.12L69.2501 293.92C67.5205 294.747 65.5096 294.747 63.7801 293.92L7.00006 261.14C6.69166 260.961 6.50183 260.632 6.50183 260.275C6.50183 259.919 6.69166 259.589 7.00006 259.41L84.0901 214.61C84.9362 214.186 85.8738 213.976 86.8201 214Z" fill="url(#paint8_linear)"/>
<path d="M34.3599 274.38C34.405 274.457 34.4708 274.519 34.5499 274.56L42.8499 279.36C42.9635 279.428 43.0999 279.448 43.228 279.414C43.3561 279.38 43.4651 279.296 43.5299 279.18C43.6674 278.939 43.5875 278.633 43.3499 278.49L35.0499 273.7C34.8092 273.563 34.5028 273.642 34.3599 273.88C34.2746 274.036 34.2746 274.224 34.3599 274.38Z" fill="url(#paint9_linear)"/>
<path d="M137.45 238.8L91.0699 212C88.407 210.64 85.2529 210.64 82.5899 212L4.06995 257.64L137.45 238.8Z" fill="url(#paint10_linear)"/>
<path d="M83.6 147.318L114.72 162.048C115.704 162.512 116.35 163.482 116.398 164.569C116.447 165.655 115.889 166.679 114.95 167.228L82.33 186.318C78.2937 188.681 73.239 188.417 69.47 185.648L45.28 167.968C44.7361 167.57 44.4292 166.925 44.4634 166.252C44.4977 165.579 44.8685 164.969 45.45 164.628L74.28 147.758C77.1237 146.082 80.6111 145.918 83.6 147.318Z" fill="url(#paint11_linear)"/>
<path d="M76.14 105.428C75.7445 105.67 75.4497 106.046 75.31 106.488C75.268 106.575 75.2345 106.665 75.21 106.758L74.13 110.758L44.63 127.898L42.56 126.708C41.815 126.17 40.8408 126.068 40 126.438L44.14 124.018L76.14 105.428Z" fill="url(#paint12_linear)"/>
<path d="M40.0001 126.448C39.9491 126.471 39.9019 126.501 39.8601 126.538L40.0001 126.448Z" fill="url(#paint13_linear)"/>
<path d="M76.14 105.428C75.7445 105.67 75.4497 106.046 75.31 106.488C75.268 106.575 75.2345 106.665 75.21 106.758L74.13 110.758L44.63 127.898L42.56 126.708C41.815 126.17 40.8408 126.068 40 126.438L44.14 124.018L76.14 105.428Z" fill="url(#paint14_linear)"/>
<path d="M73.94 101.628C75.18 100.908 76.94 101.028 78.75 102.098L80.82 103.288L44.65 124.288L42.58 123.088C40.73 122.018 39.01 121.898 37.77 122.618L73.94 101.628Z" fill="url(#paint15_linear)"/>
<path d="M80.81 103.288L80.8 106.878L74.14 110.758L44.63 127.898L44.65 124.308L75.31 106.488L80.81 103.288Z" fill="#E6E6E6"/>
<path d="M108.4 162.108V165.668C108.411 166.722 107.853 167.701 106.94 168.228L74.32 187.308C70.2856 189.673 65.231 189.414 61.46 186.648L34.81 167.118C32.462 165.637 30.6015 163.498 29.46 160.968C28.2285 158.703 27.8187 156.081 28.3 153.548L36 125.118C36.2282 124.071 36.8799 123.166 37.8 122.618L38.06 122.488L38.33 122.388C38.4926 122.333 38.66 122.293 38.83 122.268C38.916 122.253 39.004 122.253 39.09 122.268C39.2298 122.258 39.3702 122.258 39.51 122.268C40.5739 122.303 41.6093 122.621 42.51 123.188L44.08 124.088L44.58 124.378V127.968L42.51 126.778C41.765 126.24 40.7908 126.137 39.95 126.508C39.899 126.531 39.8518 126.561 39.81 126.598C39.752 126.631 39.6983 126.672 39.65 126.718C39.6118 126.75 39.5782 126.787 39.55 126.828C39.4926 126.874 39.4421 126.928 39.4 126.988C39.3669 127.02 39.3398 127.057 39.32 127.098C39.2584 127.177 39.2079 127.265 39.17 127.358V127.418C39.1109 127.558 39.0608 127.702 39.02 127.848L31.31 156.318C31.0441 157.682 31.2597 159.095 31.92 160.318C32.5415 161.676 33.5459 162.823 34.81 163.618L37.53 165.618L61.46 183.068C65.2329 185.829 70.2843 186.088 74.32 183.728L106.94 164.638C107.848 164.121 108.407 163.153 108.4 162.108Z" fill="url(#paint16_linear)"/>
<path d="M31.32 156.248L39 127.778C39.1227 127.232 39.4573 126.757 39.93 126.458L76.11 105.458C75.6295 105.751 75.2899 106.228 75.17 106.778L67.45 135.248C67.1871 136.613 67.4063 138.027 68.07 139.248C68.6311 140.582 69.5784 141.717 70.79 142.508L106.68 159.508C107.663 159.975 108.308 160.946 108.356 162.034C108.405 163.121 107.848 164.146 106.91 164.698L74.33 183.728C70.2943 186.088 65.2429 185.829 61.47 183.068L34.82 163.538C33.5566 162.745 32.5549 161.597 31.94 160.238C31.2786 159.02 31.0595 157.61 31.32 156.248Z" fill="url(#paint17_linear)"/>
<path d="M7.07 70.158L127 0.968034C129 -0.161966 130.76 -0.271966 132 0.478034L135.17 2.31803C133.88 1.56803 132.09 1.66803 130.12 2.80803L10.24 71.968C6.04812 74.6886 3.41799 79.2569 3.17 84.248L3.45 182.138C3.45 184.378 4.25 185.948 5.52 186.688L2.36 184.848C1.08 184.108 0.3 182.538 0.29 180.308L0 82.408C0.262245 77.4291 2.89008 72.8759 7.07 70.158Z" fill="url(#paint18_linear)"/>
<path d="M3.40002 167.388L3.45002 182.148C3.45002 186.638 6.66002 188.458 10.57 186.148L130.46 116.968C134.635 114.25 137.261 109.702 137.53 104.728L137.48 89.968L3.40002 167.388Z" fill="url(#paint19_linear)"/>
<path d="M10.23 71.9681C6.04548 74.6956 3.4177 79.2598 3.16003 84.2481L3.40003 167.388L137.48 89.9681L137.24 6.82811C137.24 2.32811 134.04 0.508106 130.13 2.76811L10.23 71.9681Z" fill="url(#paint20_linear)"/>
<path d="M130.87 85.1881L130.66 11.0881L9.76001 80.8881L9.97001 154.978L130.87 85.1881Z" fill="url(#paint21_linear)"/>
<path d="M70.67 136.068C68.4924 137.505 67.1295 139.892 67 142.498C67 144.868 68.68 145.818 70.74 144.628C71.9122 143.893 72.8654 142.857 73.5 141.628C72.5 141.758 71.79 141.058 71.79 139.748C71.8756 138.305 72.4793 136.941 73.49 135.908C72.6132 135.411 71.5251 135.482 70.72 136.088" fill="url(#paint22_linear)"/>
<path d="M40.0001 126.448C39.9491 126.471 39.9019 126.501 39.8601 126.538L40.0001 126.448Z" fill="url(#paint23_linear)"/>
<path d="M130.13 2.77808L10.23 71.9681C6.04548 74.6955 3.4177 79.2598 3.16003 84.2481L3.40003 167.388L130.13 2.77808Z" fill="url(#paint24_linear)"/>
<path d="M188.31 156.3L262.48 199.12C264.799 200.299 267.541 200.299 269.86 199.12L318.86 170.63C320.86 169.45 320.86 167.54 318.86 166.36L244.7 123.53C242.378 122.351 239.632 122.351 237.31 123.53L188.28 152C186.28 153.18 186.28 155.1 188.28 156.28" fill="url(#paint25_linear)"/>
<path d="M336.2 91.3401C338.25 92.5201 339.2 95.6101 338.29 98.2401L316.77 161.69C315.88 164.32 313.5 165.5 311.45 164.32L237.28 121.49C235.23 120.31 234.28 117.22 235.19 114.58L256.71 51.1401C257.6 48.5101 260 47.3401 262 48.5201L336.2 91.3401Z" fill="#160C0C"/>
<path d="M336.2 91.3401L262 48.5201C260 47.3401 257.57 48.5201 256.68 51.1401L235.19 114.59C234.3 117.22 235.24 120.31 237.28 121.49L311.45 164.31C313.5 165.5 315.88 164.31 316.77 161.69L338.29 98.2401C339.18 95.6201 338.29 92.5201 336.2 91.3401Z" fill="url(#paint26_linear)"/>
<path d="M339 91.2801L264.79 48.4601C264.269 48.154 263.674 47.995 263.07 48.0001L260.31 48.0601C260.905 48.0559 261.489 48.215 262 48.5201L336.2 91.3401C338.25 92.5201 339.2 95.6101 338.29 98.2401L316.77 161.69C316.343 163.377 314.902 164.614 313.17 164.78L315.93 164.72C317.666 164.558 319.112 163.32 319.54 161.63L341.05 98.1801C341.94 95.5601 341 92.4601 339 91.2801Z" fill="url(#paint27_linear)"/>
<path d="M334.59 96.6301L260.12 53.6301L238.9 116.21L313.37 159.2L334.59 96.6301Z" fill="url(#paint28_linear)"/>
<path d="M311.11 163.53C313.11 164.71 313.17 166.63 311.11 167.81L262.11 196.29C259.789 197.474 257.041 197.474 254.72 196.29L180.55 153.47C178.55 152.29 178.55 150.38 180.55 149.19L229.55 120.7C231.871 119.531 234.609 119.531 236.93 120.7L311.11 163.53Z" fill="url(#paint29_linear)"/>
<path d="M311.11 163.53L236.94 120.71C234.618 119.531 231.872 119.531 229.55 120.71L180.55 149.2C178.55 150.38 178.55 152.29 180.55 153.47L254.72 196.3C257.042 197.48 259.788 197.48 262.11 196.3L311.11 167.81C313.11 166.63 313.11 164.71 311.11 163.53Z" fill="url(#paint30_linear)"/>
<path d="M277.41 181.11C277.061 181.119 276.717 181.036 276.41 180.87L207.84 141.26C207.51 141.109 207.298 140.778 207.298 140.415C207.298 140.052 207.51 139.722 207.84 139.57L229.68 126.88C230.278 126.553 231.002 126.553 231.6 126.88L300.21 166.49C300.527 166.654 300.733 166.974 300.75 167.33C300.733 167.686 300.527 168.007 300.21 168.17L278.37 180.87C278.076 181.032 277.745 181.115 277.41 181.11Z" fill="url(#paint31_linear)"/>
<path d="M300 166.29C300.179 166.347 300.3 166.513 300.3 166.7C300.3 166.888 300.179 167.054 300 167.11L278.15 179.81C277.703 180.035 277.177 180.035 276.73 179.81L208.1 140.19C207.929 140.129 207.815 139.967 207.815 139.785C207.815 139.603 207.929 139.441 208.1 139.38L230 126.68C230.442 126.451 230.968 126.451 231.41 126.68L300 166.29Z" fill="url(#paint32_linear)"/>
<path d="M300 167.11L278.15 179.81C277.703 180.035 277.177 180.035 276.73 179.81L208.1 140.19C207.931 140.12 207.816 139.962 207.8 139.78V141.41C207.819 141.591 207.928 141.749 208.09 141.83L276.7 181.43C277.147 181.655 277.673 181.655 278.12 181.43L300 168.74C300.163 168.666 300.274 168.509 300.29 168.33V166.7C300.274 166.879 300.163 167.036 300 167.11Z" fill="url(#paint33_linear)"/>
<path d="M311.14 167.81L262.14 196.29C259.819 197.474 257.071 197.474 254.75 196.29L180.55 153.47C179.679 153.09 179.085 152.266 179 151.32V155.4C179.087 156.342 179.676 157.164 180.54 157.55L254.72 200.37C257.039 201.549 259.781 201.549 262.1 200.37L311.1 171.88C311.953 171.5 312.534 170.69 312.62 169.76V165.68C312.539 166.602 311.976 167.413 311.14 167.81Z" fill="url(#paint34_linear)"/>
<path d="M304.07 164.53L235.46 124.92C235.016 124.7 234.494 124.7 234.05 124.92L232.64 125.74C232.461 125.797 232.34 125.963 232.34 126.15C232.34 126.338 232.461 126.504 232.64 126.56L301.25 166.17C301.692 166.4 302.218 166.4 302.66 166.17L304.07 165.35C304.249 165.294 304.37 165.128 304.37 164.94C304.37 164.753 304.249 164.587 304.07 164.53Z" fill="url(#paint35_linear)"/>
<path opacity="0.05" d="M308.26 167L306.86 166.2C306.418 165.971 305.892 165.971 305.45 166.2L279.53 181.26C279.359 181.321 279.245 181.483 279.245 181.665C279.245 181.847 279.359 182.009 279.53 182.07L280.93 182.88C281.376 183.11 281.905 183.11 282.35 182.88L308.26 167.88C308.436 167.818 308.554 167.652 308.554 167.465C308.554 167.279 308.436 167.112 308.26 167.05" fill="url(#paint36_linear)"/>
<path opacity="0.05" d="M232.55 123.3L231.16 122.49C230.714 122.26 230.185 122.26 229.74 122.49L203.83 137.55C203.44 137.77 203.44 138.14 203.83 138.37L205.22 139.17C205.665 139.4 206.194 139.4 206.64 139.17L232.55 124.17C232.729 124.114 232.85 123.948 232.85 123.76C232.85 123.572 232.729 123.407 232.55 123.35" fill="url(#paint37_linear)"/>
<path opacity="0.05" d="M256.41 171.65L223.13 152.44C222.242 151.984 221.188 151.984 220.3 152.44L203.21 162.37C202.863 162.493 202.631 162.822 202.631 163.19C202.631 163.559 202.863 163.887 203.21 164.01L236.5 183.22C237.388 183.676 238.442 183.676 239.33 183.22L256.42 173.29C257.2 172.84 257.2 172.11 256.42 171.65" fill="url(#paint38_linear)"/>
<path d="M336.2 91.3401L262 48.5201C260 47.3401 257.57 48.5201 256.68 51.1401L235.19 114.59L336.2 91.3401Z" fill="url(#paint39_linear)"/>
<path d="M244.002 240.3L314.482 199.34L353.892 219.55L283.412 260.51L244.002 240.3Z" fill="url(#paint40_linear)"/>
<path d="M288.232 263.29L358.712 222.29L398.112 247.58L330.802 286.74C328.857 287.868 326.445 287.814 324.552 286.6L288.232 263.29Z" fill="url(#paint41_linear)"/>
<path d="M236.002 239.3L306.482 198.34L345.892 218.55L275.412 259.51L236.002 239.3Z" fill="url(#paint42_linear)"/>
<path d="M275.412 259.51L345.892 218.55L346.012 221.16L275.532 262.12L275.412 259.51Z" fill="url(#paint43_linear)"/>
<path d="M275.532 262.12L346.012 221.16L350.582 223.8L280.102 264.76L275.532 262.12Z" fill="url(#paint44_linear)"/>
<path d="M282.902 267.28L353.382 226.32L353.262 228.61L282.782 269.57L282.902 267.28Z" fill="url(#paint45_linear)"/>
<path d="M280.232 262.29L319.632 287.58L319.462 290.75L282.902 267.28L282.782 269.57L272.842 263.83L272.732 261.41L236.152 242.65L236.002 239.3L275.412 259.51L275.532 262.12L280.102 264.76L280.232 262.29Z" fill="url(#paint46_linear)"/>
<path d="M319.632 287.58L390.112 246.62L389.942 249.79L319.462 290.75L319.632 287.58Z" fill="url(#paint47_linear)"/>
<path d="M280.232 262.29L350.712 221.33L390.112 246.62L319.632 287.58L280.232 262.29Z" fill="url(#paint48_linear)"/>
<path d="M347.172 222.06L347.042 224.52L285.682 260.17L284.822 259.62L283.672 260.29L283.742 258.92L347.172 222.06Z" fill="white"/>
<path d="M242.762 233.86L306.192 197C315.796 198.128 325.086 201.132 333.532 205.84C342.532 211.02 344.422 217.9 344.762 221.62L281.332 258.49C281.002 254.76 279.072 247.88 270.102 242.71C261.655 238.002 252.366 234.995 242.762 233.86Z" fill="url(#paint49_linear)"/>
<path d="M319.922 278.41L319.662 282L284.822 259.62L283.742 258.92L283.672 260.29L282.672 260.85L279.002 258.75L278.882 256.14L243.002 237.71L242.772 233.86C252.376 234.99 261.665 237.993 270.112 242.7C279.112 247.88 280.992 254.76 281.332 258.48C281.692 255.16 283.642 250.48 292.602 255.69C305.512 263.15 319.202 277.64 319.922 278.41Z" fill="url(#paint50_linear)"/>
<path d="M356.002 218.83C351.482 216.22 348.742 216.11 347.092 217.07L283.692 253.93C285.342 252.93 288.082 253.08 292.602 255.7C305.512 263.15 319.192 277.7 319.912 278.41L383.352 241.55C382.632 240.78 368.942 226.29 356.002 218.83Z" fill="url(#paint51_linear)"/>
<path d="M319.912 278.41L383.352 241.55L383.092 245.12L319.662 281.98L319.912 278.41Z" fill="url(#paint52_linear)"/>
<path opacity="0.08" d="M312.272 227.32L286.802 242.12C284.897 239.946 282.634 238.113 280.112 236.7C273.703 233.106 266.784 230.509 259.592 229L285.122 214.15C292.276 215.662 299.159 218.255 305.532 221.84C308.077 223.265 310.358 225.119 312.272 227.32Z" fill="#4E7FFF"/>
<path opacity="0.08" d="M338.892 260.06L325.432 267.88C320.212 262.81 311.242 254.68 302.612 249.69C301.982 249.33 301.392 249.01 300.832 248.75L314.312 240.91C314.852 241.18 315.422 241.48 316.032 241.83C324.682 246.83 333.672 255 338.892 260.06Z" fill="#4E7FFF"/>
<path opacity="0.08" d="M371.782 240.94L342.692 257.85C337.452 252.77 328.572 244.76 320.032 239.85C319.312 239.43 318.642 239.08 318.032 238.78L347.172 221.85C347.762 222.13 348.392 222.46 349.062 222.85C357.632 227.79 366.552 235.86 371.782 240.94Z" fill="#4E7FFF"/>
<path d="M162.002 348L136.112 333L135.632 333.28L112.802 320.12L111.532 320.86L109.192 319.51C107.857 318.83 106.277 318.83 104.942 319.51L103.692 320.24C103.166 320.42 102.813 320.914 102.813 321.47C102.813 322.026 103.166 322.52 103.692 322.7L106.002 324.05L104.732 324.79L127.592 338L127.122 338.28L153.002 353.19L153.562 352.86L164.562 355.66L166.262 354.66L161.402 348.28L162.002 348Z" fill="url(#paint53_linear)"/>
<path d="M102.432 319.74L105.232 321.37C105.011 321.241 104.758 321.175 104.502 321.18C102.682 321.18 100.502 323.94 100.502 326.33C100.438 327.026 100.741 327.704 101.302 328.12L98.5021 326.49C97.5337 325.896 96.9605 324.826 97.0021 323.69C97.0021 321.55 98.8021 319.34 101.002 319.34C101.518 319.351 102.022 319.488 102.472 319.74" fill="url(#paint54_linear)"/>
<path d="M103.322 320.22C104.113 319.675 105.133 319.592 106.002 320L130.722 334.34C129.846 333.929 128.816 334.017 128.022 334.57C125.689 336.03 124.201 338.524 124.022 341.27C123.899 342.274 124.336 343.265 125.162 343.85L100.502 329.5C99.6799 328.912 99.243 327.924 99.3621 326.92C99.5318 324.181 101.004 321.69 103.322 320.22Z" fill="url(#paint55_linear)"/>
<path d="M103.322 320.22C104.113 319.675 105.133 319.592 106.002 320L130.722 334.34C129.846 333.929 128.816 334.017 128.022 334.57C125.689 336.03 124.201 338.524 124.022 341.27C123.899 342.274 124.336 343.265 125.162 343.85L100.502 329.5C99.6799 328.912 99.243 327.924 99.3621 326.92C99.5318 324.181 101.004 321.69 103.322 320.22Z" fill="url(#paint56_linear)"/>
<path d="M150.217 352.021C151.962 349.018 151.964 345.762 150.221 344.749C148.478 343.736 145.65 345.35 143.905 348.353C142.159 351.357 142.158 354.613 143.901 355.626C145.643 356.639 148.471 355.025 150.217 352.021Z" fill="url(#paint57_linear)"/>
<path d="M128.002 333.92C128.912 333.28 130.095 333.177 131.102 333.65L150.202 344.75C149.195 344.277 148.012 344.38 147.102 345.02C144.453 346.701 142.769 349.549 142.572 352.68C142.412 353.844 142.913 355.001 143.872 355.68L124.802 344.54C123.847 343.857 123.343 342.705 123.492 341.54C123.7 338.428 125.374 335.6 128.002 333.92Z" fill="url(#paint58_linear)"/>
<path d="M147.112 345.67C148.492 344.9 149.702 345.06 150.382 345.93L156.702 354.08C156.464 353.822 156.067 353.791 155.792 354.01C155.152 354.415 154.746 355.104 154.702 355.86C154.702 356.32 154.902 356.6 155.212 356.64L145.002 355.19C143.872 355 143.132 354 143.152 352.37C143.327 349.633 144.798 347.143 147.112 345.67Z" fill="url(#paint59_linear)"/>
<path d="M156.536 355.697C156.958 354.971 156.959 354.185 156.539 353.941C156.119 353.696 155.436 354.087 155.015 354.813C154.593 355.539 154.592 356.325 155.012 356.569C155.432 356.813 156.115 356.423 156.536 355.697Z" fill="url(#paint60_linear)"/>
<path d="M157.652 355C158.204 355.315 158.397 356.018 158.082 356.57C157.767 357.122 157.064 357.315 156.512 357L155.212 356.25C155.041 356.131 154.952 355.926 154.982 355.72C155.014 355.156 155.315 354.642 155.792 354.34C155.963 354.244 156.171 354.244 156.342 354.34L157.652 355.1" fill="url(#paint61_linear)"/>
<path d="M107.312 322.72L120.132 330.17L124.082 327.89L111.262 320.44L107.312 322.72Z" fill="url(#paint62_linear)"/>
<path d="M107.312 322.72L107.322 324.67L120.142 332.12L120.132 330.17L107.312 322.72Z" fill="url(#paint63_linear)"/>
<path d="M120.132 330.17L120.142 332.12L124.092 329.84L124.082 327.89L120.132 330.17Z" fill="url(#paint64_linear)"/>
<path d="M176.957 312.01C176.709 312.009 176.465 311.947 176.247 311.83C174.387 310.83 168.307 307.26 168.367 303.68C168.443 302.212 169.381 300.929 170.757 300.41L211.567 276.71C218.197 272.86 218.157 271.32 218.157 271.31C217.917 270.81 215.517 270.18 213.087 270.18C212.258 270.18 211.587 269.509 211.587 268.68C211.587 267.852 212.258 267.18 213.087 267.18C214.737 267.18 220.217 267.42 221.087 270.54C221.757 273.01 219.287 275.71 213.087 279.31L172.177 303.07C171.747 303.29 171.377 303.55 171.367 303.75C171.367 304.94 174.677 307.59 177.677 309.21C178.261 309.547 178.55 310.231 178.382 310.884C178.214 311.537 177.631 311.998 176.957 312.01Z" fill="url(#paint65_linear)"/>
<path d="M206.777 329.561H206.567C206.031 329.552 205.541 329.257 205.28 328.789C205.02 328.32 205.03 327.749 205.305 327.289C205.581 326.829 206.081 326.552 206.617 326.561C206.687 326.561 213.977 326.651 218.897 323.741L255.837 302.271C258.457 300.751 260.147 299.661 261.227 298.891C260.767 298.981 260.287 299.091 259.827 299.211C259.026 299.423 258.205 298.946 257.992 298.146C257.779 297.345 258.256 296.523 259.057 296.311C265.007 294.731 265.637 296.251 265.907 296.901C266.587 298.531 265.477 300.141 257.347 304.901L220.417 326.331C215.207 329.411 208.127 329.561 206.777 329.561Z" fill="url(#paint66_linear)"/>
<path d="M163.077 284.9L196.177 268.11L196.887 267.77L202.427 265.3C203.99 264.572 205.704 264.229 207.427 264.3L213.867 264.68C214.707 264.68 214.867 265.98 214.157 267.14L213.727 267.82C213.261 268.635 212.602 269.322 211.807 269.82C211.249 270.167 210.563 270.237 209.947 270.01L204.717 267.82C204.245 267.664 203.727 267.738 203.317 268.02C203.141 268.127 202.974 268.247 202.817 268.38L198.017 272.49C197.34 273.066 196.61 273.575 195.837 274.01C195.476 274.224 195.102 274.414 194.717 274.58L162.907 288.44C162.537 288.6 162.267 288.38 162.277 287.94L162.377 286.07C162.418 285.594 162.676 285.162 163.077 284.9Z" fill="url(#paint67_linear)"/>
<path d="M212.087 263.5C211.987 263.441 211.873 263.406 211.757 263.4L205.327 263.01C203.604 262.934 201.888 263.277 200.327 264.01L194.767 266.54L194.017 266.88L160.957 283.67C160.556 283.93 160.3 284.364 160.267 284.84L160.167 286.71C160.135 286.904 160.217 287.098 160.377 287.21L162.487 288.44C162.327 288.328 162.245 288.134 162.277 287.94L162.377 286.07C162.418 285.594 162.676 285.162 163.077 284.9L196.177 268.11L196.887 267.77L202.427 265.3C203.99 264.572 205.704 264.23 207.427 264.3L213.867 264.68C213.98 264.686 214.09 264.721 214.187 264.78L212.087 263.5Z" fill="url(#paint68_linear)"/>
<path d="M212.577 313.62L245.677 296.83L246.387 296.49L251.927 294.01C253.488 293.277 255.204 292.934 256.927 293.01L263.367 293.38C264.207 293.43 264.367 294.68 263.647 295.84L263.227 296.52C262.761 297.338 262.097 298.026 261.297 298.52C260.75 298.897 260.058 298.997 259.427 298.79L254.197 296.57C253.728 296.415 253.213 296.489 252.807 296.77C252.631 296.877 252.464 296.997 252.307 297.13L247.477 301.21C246.814 301.787 246.097 302.299 245.337 302.74C244.975 302.952 244.601 303.142 244.217 303.31L212.407 317.16C212.037 317.32 211.757 317.1 211.777 316.66L211.877 314.79C211.918 314.314 212.176 313.882 212.577 313.62Z" fill="url(#paint69_linear)"/>
<path d="M261.577 292.22C261.48 292.161 261.37 292.126 261.257 292.12L254.827 291.75C253.104 291.674 251.388 292.017 249.827 292.75L244.277 295.22L243.567 295.56L210.457 312.39C210.056 312.652 209.798 313.084 209.757 313.56L209.667 315.43C209.635 315.624 209.717 315.818 209.877 315.93L212.017 317.16C211.857 317.048 211.775 316.854 211.807 316.66L211.907 314.79C211.948 314.314 212.206 313.882 212.607 313.62L245.707 296.83L246.417 296.49L251.927 294.01C253.488 293.277 255.204 292.934 256.927 293.01L263.367 293.38C263.48 293.386 263.59 293.421 263.687 293.48L261.577 292.22Z" fill="url(#paint70_linear)"/>
<path d="M175.757 307.771L175.537 308.031C175.347 308.232 175.143 308.419 174.927 308.591C174.216 309.1 173.361 309.369 172.487 309.361C171.33 309.275 170.206 308.934 169.197 308.361C167.072 307.33 165.172 305.889 163.607 304.121C162.898 303.233 162.375 302.213 162.067 301.121C161.407 298.475 161.035 295.766 160.957 293.041V292.901C160.957 292.811 160.957 292.701 160.957 292.601C160.97 292.506 160.99 292.412 161.017 292.321C161.136 291.449 161.91 290.82 162.787 290.881C163.124 290.888 163.46 290.935 163.787 291.021C163.777 291.164 163.777 291.307 163.787 291.451C163.865 294.179 164.237 296.892 164.897 299.541C165.199 300.635 165.724 301.656 166.437 302.541C167.437 303.801 168.677 304.861 172.017 306.791C173.128 307.506 174.438 307.849 175.757 307.771Z" fill="url(#paint71_linear)"/>
<path d="M183.017 304.52L183.187 304.62C182.477 307.16 181.187 309.62 179.187 310.73L176.417 312.37C178.497 311.16 179.777 308.58 180.477 305.92C180.558 305.6 180.694 305.296 180.877 305.02L180.997 304.86C181.038 304.815 181.081 304.771 181.127 304.73H181.177C181.177 304.73 181.227 304.68 181.257 304.67L181.397 304.58L181.487 304.53C181.953 304.329 182.481 304.329 182.947 304.53L183.017 304.52Z" fill="url(#paint72_linear)"/>
<path d="M204.147 324.8C204.087 324.99 204.017 325.18 203.947 325.35C203.788 325.744 203.508 326.077 203.147 326.3C202.916 326.436 202.654 326.511 202.387 326.52C201.387 326.6 200.147 326.26 196.807 324.33C193.467 322.4 190.857 318.73 189.227 313.33C188.857 312.11 188.227 310.92 188.347 309.79C188.002 308.818 188.311 307.734 189.117 307.09C189.537 306.869 190.033 306.84 190.477 307.01L191.107 307.21C191.107 307.53 191.141 307.848 191.207 308.16C191.436 309.335 191.727 310.496 192.077 311.64C193.707 316.99 196.247 320.7 199.627 322.64C201.024 323.57 202.546 324.297 204.147 324.8Z" fill="url(#paint73_linear)"/>
<path d="M210.747 312.541C207.974 310.21 205.059 308.056 202.017 306.091C194.017 301.481 189.017 300.641 185.897 298.861C182.777 297.081 177.777 292.101 169.797 287.491C166.979 286.016 164.042 284.782 161.017 283.801C160.791 283.698 160.532 283.698 160.307 283.801L157.447 285.481C157.676 285.378 157.938 285.378 158.167 285.481C161.188 286.464 164.122 287.698 166.937 289.171C174.937 293.771 179.937 298.761 183.037 300.541C186.137 302.321 191.177 303.161 199.167 307.771C202.217 309.734 205.143 311.885 207.927 314.211C208.571 314.776 208.963 315.575 209.017 316.431V317.561C209.021 317.766 208.973 317.969 208.877 318.151L208.107 318.601C208.002 318.709 207.967 318.868 208.017 319.011C208.03 319.638 208.003 320.266 207.937 320.891C207.868 323.35 207.427 325.784 206.627 328.111C206.345 328.819 205.84 329.416 205.187 329.811L208.017 328.131C208.67 327.733 209.176 327.132 209.457 326.421C210.257 324.094 210.698 321.66 210.767 319.201C210.833 318.576 210.86 317.948 210.847 317.321C210.841 317.277 210.841 317.234 210.847 317.191L211.477 316.831C211.77 316.624 211.93 316.277 211.897 315.921V314.791C211.841 313.914 211.424 313.1 210.747 312.541Z" fill="url(#paint74_linear)"/>
<path fill-rule="evenodd" clip-rule="evenodd" d="M209.017 316.431C208.964 315.555 208.556 314.738 207.887 314.171C205.104 311.839 202.175 309.688 199.117 307.731C194.165 304.877 190.363 303.468 187.445 302.387L187.445 302.387C185.648 301.721 184.186 301.179 182.997 300.501C181.786 299.81 180.299 298.636 178.465 297.189C175.573 294.907 171.821 291.946 166.937 289.131C166.017 288.611 158.407 285.011 157.487 285.451C157.187 285.656 157.022 286.008 157.057 286.371C156.872 287.432 157.144 288.521 157.807 289.371C157.988 289.58 158.093 289.844 158.107 290.121C158.105 293.727 158.545 297.321 159.417 300.821C159.98 302.78 160.932 304.607 162.217 306.191C163.897 308.191 165.647 309.611 169.217 311.641C171.527 312.981 174.147 313.711 176.457 312.371C176.557 312.313 176.654 312.25 176.747 312.181L176.917 312.061L177.017 312.011C178.747 310.691 179.847 308.361 180.487 305.961C180.564 305.639 180.699 305.333 180.887 305.061C180.911 305.01 180.941 304.963 180.977 304.921C181.036 304.85 181.103 304.786 181.177 304.731L181.337 304.601H181.387C181.878 304.371 182.446 304.371 182.937 304.601H183.017C184.361 305.688 185.264 307.227 185.557 308.931C186.837 315.371 190.077 323.801 196.787 327.671C200.317 329.671 202.067 330.361 203.787 330.261C204.484 330.221 205.147 329.946 205.667 329.481C206.077 329.111 206.399 328.652 206.607 328.141C207.947 324.821 208.017 318.811 208.017 318.811C208.008 318.792 208.008 318.769 208.017 318.751C208.017 318.691 208.127 318.591 208.157 318.591C208.318 318.568 208.476 318.524 208.627 318.461L208.717 318.401C208.743 318.359 208.761 318.349 208.778 318.339C208.807 318.322 208.834 318.307 208.897 318.151C209.013 317.585 209.053 317.007 209.017 316.431ZM174.927 308.591C171.457 311.081 165.327 306.241 163.607 304.141C162.895 303.256 162.371 302.235 162.067 301.141C161.287 298.331 160.777 293.291 161.067 292.291C161.437 290.531 163.127 290.621 164.777 291.291C168.467 292.751 174.007 297.021 175.637 298.401C176.927 299.516 177.71 301.107 177.807 302.811C177.54 305.011 176.523 307.052 174.927 308.591ZM202.367 326.521C203.074 326.478 203.688 326.018 203.927 325.351H203.947C204.67 323.113 205.058 320.781 205.097 318.431C205.097 315.181 201.477 312.341 199.147 311.011C196.416 309.364 193.507 308.033 190.477 307.041C189.167 306.631 188.287 307.461 188.287 308.941C188.287 310.911 190.577 320.731 196.807 324.321C199.867 326.091 201.117 326.521 202.117 326.521H202.367Z" fill="url(#paint75_linear)"/>
<path opacity="0.75" d="M175.597 298.451C174.017 297.071 168.427 292.801 164.737 291.341C164.05 291.019 163.295 290.868 162.537 290.901C162.392 291.119 162.29 291.364 162.237 291.621C161.987 292.621 162.497 297.621 163.237 300.471C163.541 301.565 164.065 302.586 164.777 303.471C166.347 305.391 171.587 309.571 175.127 308.391C176.555 306.879 177.466 304.953 177.727 302.891C177.649 301.183 176.88 299.58 175.597 298.451Z" fill="url(#paint76_linear)"/>
<path opacity="0.75" d="M199.147 311.01C196.417 309.354 193.509 308.012 190.477 307.01C190.261 306.938 190.034 306.908 189.807 306.92C189.589 307.315 189.482 307.76 189.497 308.21C189.497 310.21 191.787 320 198.017 323.59C201.077 325.36 202.337 325.79 203.327 325.79H203.597H203.687C203.793 325.652 203.88 325.501 203.947 325.34C204.672 323.097 205.06 320.758 205.097 318.4C205.097 315.16 201.477 312.32 199.147 311.01Z" fill="url(#paint77_linear)"/>
<path d="M192.077 316.74C192.077 316.74 195.357 314.64 203.457 314.5C202.232 313.097 200.774 311.916 199.147 311.01C196.417 309.354 193.509 308.012 190.477 307.01C190.261 306.938 190.034 306.908 189.807 306.92C189.589 307.315 189.482 307.76 189.497 308.21C189.83 311.187 190.704 314.078 192.077 316.74Z" fill="url(#paint78_linear)"/>
<path d="M176.147 299.011C175.976 298.818 175.792 298.638 175.597 298.471C174.017 297.071 168.427 292.801 164.737 291.341C164.05 291.019 163.295 290.868 162.537 290.901C162.392 291.119 162.29 291.364 162.237 291.621C161.987 292.621 162.497 297.621 163.237 300.471C163.307 300.731 163.397 300.981 163.487 301.231C163.537 301.231 167.097 298.911 176.147 299.011Z" fill="url(#paint79_linear)"/>
<defs>
<linearGradient id="paint0_linear" x1="137.137" y1="234.354" x2="211.276" y2="203.423" gradientUnits="userSpaceOnUse">
<stop stop-color="#292376"/>
<stop offset="1" stop-color="#5D278F" stop-opacity="0.01"/>
</linearGradient>
<linearGradient id="paint1_linear" x1="198.83" y1="180.128" x2="118" y2="180.128" gradientUnits="userSpaceOnUse">
<stop stop-color="#C0DDE2"/>
<stop offset="1" stop-color="#DBF9EA"/>
</linearGradient>
<linearGradient id="paint2_linear" x1="102.131" y1="221.574" x2="179.966" y2="259.536" gradientUnits="userSpaceOnUse">
<stop stop-color="white"/>
<stop offset="1" stop-color="#DBF9EA"/>
</linearGradient>
<linearGradient id="paint3_linear" x1="121.85" y1="202.49" x2="259.801" y2="202.49" gradientUnits="userSpaceOnUse">
<stop stop-color="#0CBABA"/>
<stop offset="1" stop-color="#380036"/>
</linearGradient>
<linearGradient id="paint4_linear" x1="188.082" y1="219.872" x2="188.199" y2="213.69" gradientUnits="userSpaceOnUse">
<stop stop-color="#DBF9EA"/>
<stop offset="0.97" stop-color="white"/>
</linearGradient>
<linearGradient id="paint5_linear" x1="27.6383" y1="318.381" x2="185.174" y2="251.164" gradientUnits="userSpaceOnUse">
<stop stop-color="#292376"/>
<stop offset="1" stop-color="#5D278F" stop-opacity="0.01"/>
</linearGradient>
<linearGradient id="paint6_linear" x1="2.01005" y1="297.551" x2="151.34" y2="297.551" gradientUnits="userSpaceOnUse">
<stop stop-color="#5D278F"/>
<stop offset="1" stop-color="#292376"/>
</linearGradient>
<linearGradient id="paint7_linear" x1="2" y1="300.79" x2="151.34" y2="300.79" gradientUnits="userSpaceOnUse">
<stop stop-color="#DBF9EA"/>
<stop offset="1" stop-color="#C0DDE2"/>
</linearGradient>
<linearGradient id="paint8_linear" x1="6.50183" y1="254.269" x2="268.117" y2="254.269" gradientUnits="userSpaceOnUse">
<stop stop-color="#0CBABA"/>
<stop offset="1" stop-color="#380036"/>
</linearGradient>
<linearGradient id="paint9_linear" x1="43.4207" y1="278.893" x2="43.3102" y2="272.676" gradientUnits="userSpaceOnUse">
<stop stop-color="#DBF9EA"/>
<stop offset="0.97" stop-color="white"/>
</linearGradient>
<linearGradient id="paint10_linear" x1="4.06995" y1="257.65" x2="137.45" y2="257.65" gradientUnits="userSpaceOnUse">
<stop stop-color="white" stop-opacity="0.25"/>
<stop offset="1" stop-color="#DBF9EA" stop-opacity="0.01"/>
</linearGradient>
<linearGradient id="paint11_linear" x1="112.013" y1="133.631" x2="28.8808" y2="169.807" gradientUnits="userSpaceOnUse">
<stop stop-color="#5D278F" stop-opacity="0.01"/>
<stop offset="1" stop-color="#292376"/>
</linearGradient>
<linearGradient id="paint12_linear" x1="75.3566" y1="115.218" x2="63.4442" y2="105.58" gradientUnits="userSpaceOnUse">
<stop stop-color="#DBF9EA"/>
<stop offset="1" stop-color="#C0DDE2"/>
</linearGradient>
<linearGradient id="paint13_linear" x1="39.9901" y1="126.473" x2="39.9401" y2="126.453" gradientUnits="userSpaceOnUse">
<stop stop-color="#DBF9EA"/>
<stop offset="1" stop-color="#C0DDE2"/>
</linearGradient>
<linearGradient id="paint14_linear" x1="75.3566" y1="115.218" x2="63.4442" y2="105.58" gradientUnits="userSpaceOnUse">
<stop stop-color="#DBF9EA"/>
<stop offset="1" stop-color="#C0DDE2"/>
</linearGradient>
<linearGradient id="paint15_linear" x1="37.77" y1="124.305" x2="80.82" y2="124.305" gradientUnits="userSpaceOnUse">
<stop stop-color="#DBF9EA"/>
<stop offset="1" stop-color="#C0DDE2"/>
</linearGradient>
<linearGradient id="paint16_linear" x1="28.07" y1="188.902" x2="108.4" y2="188.902" gradientUnits="userSpaceOnUse">
<stop stop-color="#DBF9EA"/>
<stop offset="1" stop-color="#C0DDE2"/>
</linearGradient>
<linearGradient id="paint17_linear" x1="116.047" y1="135.238" x2="73.1367" y2="122.734" gradientUnits="userSpaceOnUse">
<stop stop-color="#DBF9EA"/>
<stop offset="1" stop-color="#C0DDE2"/>
</linearGradient>
<linearGradient id="paint18_linear" x1="307.852" y1="152.304" x2="104.707" y2="46.8454" gradientUnits="userSpaceOnUse">
<stop stop-color="#DBF9EA"/>
<stop offset="1" stop-color="#C0DDE2"/>
</linearGradient>
<linearGradient id="paint19_linear" x1="3.40002" y1="187.17" x2="137.53" y2="187.17" gradientUnits="userSpaceOnUse">
<stop stop-color="#DBF9EA"/>
<stop offset="1" stop-color="#C0DDE2"/>
</linearGradient>
<linearGradient id="paint20_linear" x1="-6.54308" y1="119.75" x2="105.009" y2="162.124" gradientUnits="userSpaceOnUse">
<stop stop-color="#5D278F"/>
<stop offset="1" stop-color="#292376"/>
</linearGradient>
<linearGradient id="paint21_linear" x1="9.76001" y1="83.0331" x2="235.533" y2="83.0331" gradientUnits="userSpaceOnUse">
<stop stop-color="#0CBABA"/>
<stop offset="1" stop-color="#380036"/>
</linearGradient>
<linearGradient id="paint22_linear" x1="66.95" y1="145.129" x2="73.45" y2="145.129" gradientUnits="userSpaceOnUse">
<stop stop-color="#5D278F"/>
<stop offset="1" stop-color="#292376"/>
</linearGradient>
<linearGradient id="paint23_linear" x1="39.9901" y1="126.473" x2="39.9401" y2="126.453" gradientUnits="userSpaceOnUse">
<stop stop-color="#DBF9EA"/>
<stop offset="1" stop-color="#C0DDE2"/>
</linearGradient>
<linearGradient id="paint24_linear" x1="3.5542" y1="96.302" x2="69.387" y2="118.915" gradientUnits="userSpaceOnUse">
<stop stop-color="white" stop-opacity="0.25"/>
<stop offset="1" stop-color="#DBF9EA" stop-opacity="0.01"/>
</linearGradient>
<linearGradient id="paint25_linear" x1="197.102" y1="197.491" x2="329.932" y2="233.755" gradientUnits="userSpaceOnUse">
<stop stop-color="#292376"/>
<stop offset="1" stop-color="#5D278F" stop-opacity="0.01"/>
</linearGradient>
<linearGradient id="paint26_linear" x1="216.278" y1="131.901" x2="313.649" y2="176.349" gradientUnits="userSpaceOnUse">
<stop stop-color="#5D278F"/>
<stop offset="1" stop-color="#292376"/>
</linearGradient>
<linearGradient id="paint27_linear" x1="339.427" y1="33.9926" x2="244.057" y2="37.2503" gradientUnits="userSpaceOnUse">
<stop stop-color="#DBF9EA"/>
<stop offset="1" stop-color="#C0DDE2"/>
</linearGradient>
<linearGradient id="paint28_linear" x1="238.9" y1="106.415" x2="417.285" y2="106.415" gradientUnits="userSpaceOnUse">
<stop stop-color="#0CBABA"/>
<stop offset="1" stop-color="#380036"/>
</linearGradient>
<linearGradient id="paint29_linear" x1="179.01" y1="197.194" x2="312.65" y2="197.194" gradientUnits="userSpaceOnUse">
<stop stop-color="#DBF9EA"/>
<stop offset="1" stop-color="#C0DDE2"/>
</linearGradient>
<linearGradient id="paint30_linear" x1="179.01" y1="197.203" x2="312.65" y2="197.203" gradientUnits="userSpaceOnUse">
<stop stop-color="#DBF9EA"/>
<stop offset="1" stop-color="#C0DDE2"/>
</linearGradient>
<linearGradient id="paint31_linear" x1="325.576" y1="138.51" x2="253.45" y2="78.4054" gradientUnits="userSpaceOnUse">
<stop stop-color="#DBF9EA"/>
<stop offset="1" stop-color="#C0DDE2"/>
</linearGradient>
<linearGradient id="paint32_linear" x1="207.8" y1="179.968" x2="300.26" y2="179.968" gradientUnits="userSpaceOnUse">
<stop stop-color="#5D278F"/>
<stop offset="1" stop-color="#292376"/>
</linearGradient>
<linearGradient id="paint33_linear" x1="306.76" y1="143.122" x2="219.386" y2="114.187" gradientUnits="userSpaceOnUse">
<stop stop-color="#5D278F"/>
<stop offset="1" stop-color="#292376"/>
</linearGradient>
<linearGradient id="paint34_linear" x1="309.7" y1="153.352" x2="186.94" y2="153.352" gradientUnits="userSpaceOnUse">
<stop stop-color="#DBF9EA"/>
<stop offset="1" stop-color="#C0DDE2"/>
</linearGradient>
<linearGradient id="paint35_linear" x1="232.35" y1="166.338" x2="304.36" y2="166.338" gradientUnits="userSpaceOnUse">
<stop offset="0.05" stop-color="#ED1E79"/>
<stop offset="0.32" stop-color="#D9E021"/>
<stop offset="1" stop-color="#29C7E2"/>
</linearGradient>
<linearGradient id="paint36_linear" x1="279.24" y1="183.055" x2="308.56" y2="183.055" gradientUnits="userSpaceOnUse">
<stop stop-color="#5D278F"/>
<stop offset="1" stop-color="#292376"/>
</linearGradient>
<linearGradient id="paint37_linear" x1="203.54" y1="139.341" x2="232.85" y2="139.341" gradientUnits="userSpaceOnUse">
<stop stop-color="#5D278F"/>
<stop offset="1" stop-color="#292376"/>
</linearGradient>
<linearGradient id="paint38_linear" x1="202.63" y1="183.561" x2="257" y2="183.561" gradientUnits="userSpaceOnUse">
<stop stop-color="#5D278F"/>
<stop offset="1" stop-color="#292376"/>
</linearGradient>
<linearGradient id="paint39_linear" x1="207.615" y1="102.797" x2="256.823" y2="168.296" gradientUnits="userSpaceOnUse">
<stop stop-color="white" stop-opacity="0.25"/>
<stop offset="1" stop-color="#DBF9EA" stop-opacity="0.01"/>
</linearGradient>
<linearGradient id="paint40_linear" x1="317.268" y1="269.201" x2="376.151" y2="188.676" gradientUnits="userSpaceOnUse">
<stop stop-color="#292376"/>
<stop offset="1" stop-color="#5D278F" stop-opacity="0.01"/>
</linearGradient>
<linearGradient id="paint41_linear" x1="330.532" y1="308.535" x2="396.624" y2="229.141" gradientUnits="userSpaceOnUse">
<stop stop-color="#292376"/>
<stop offset="1" stop-color="#5D278F" stop-opacity="0.01"/>
</linearGradient>
<linearGradient id="paint42_linear" x1="337.967" y1="277.207" x2="382.375" y2="170.932" gradientUnits="userSpaceOnUse">
<stop stop-color="#292376"/>
<stop offset="1" stop-color="#0CBABA"/>
</linearGradient>
<linearGradient id="paint43_linear" x1="275.412" y1="262.115" x2="346.012" y2="262.115" gradientUnits="userSpaceOnUse">
<stop stop-color="#023E8A"/>
<stop offset="1" stop-color="#00B4D8"/>
</linearGradient>
<linearGradient id="paint44_linear" x1="275.532" y1="264.76" x2="350.582" y2="264.76" gradientUnits="userSpaceOnUse">
<stop stop-color="#023E8A"/>
<stop offset="1" stop-color="#00B4D8"/>
</linearGradient>
<linearGradient id="paint45_linear" x1="282.782" y1="269.565" x2="353.382" y2="269.565" gradientUnits="userSpaceOnUse">
<stop stop-color="#023E8A"/>
<stop offset="1" stop-color="#00B4D8"/>
</linearGradient>
<linearGradient id="paint46_linear" x1="236.002" y1="290.745" x2="319.632" y2="290.745" gradientUnits="userSpaceOnUse">
<stop stop-color="#292376"/>
<stop offset="1" stop-color="#023E8A"/>
</linearGradient>
<linearGradient id="paint47_linear" x1="319.462" y1="290.745" x2="390.112" y2="290.745" gradientUnits="userSpaceOnUse">
<stop stop-color="#292376"/>
<stop offset="1" stop-color="#0CBABA"/>
</linearGradient>
<linearGradient id="paint48_linear" x1="360.354" y1="317.329" x2="412.776" y2="210.411" gradientUnits="userSpaceOnUse">
<stop stop-color="#292376"/>
<stop offset="1" stop-color="#0CBABA"/>
</linearGradient>
<linearGradient id="paint49_linear" x1="326.951" y1="239.348" x2="320.323" y2="211.62" gradientUnits="userSpaceOnUse">
<stop stop-color="#DBF9EA"/>
<stop offset="0.97" stop-color="white"/>
</linearGradient>
<linearGradient id="paint50_linear" x1="222.229" y1="266.125" x2="271.568" y2="326.772" gradientUnits="userSpaceOnUse">
<stop stop-color="#DBF9EA"/>
<stop offset="0.97" stop-color="white"/>
</linearGradient>
<linearGradient id="paint51_linear" x1="387.68" y1="266.259" x2="375.54" y2="216.502" gradientUnits="userSpaceOnUse">
<stop stop-color="#DBF9EA"/>
<stop offset="0.97" stop-color="white"/>
</linearGradient>
<linearGradient id="paint52_linear" x1="364.118" y1="228.337" x2="309.185" y2="273.539" gradientUnits="userSpaceOnUse">
<stop stop-color="#DBF9EA"/>
<stop offset="0.97" stop-color="white"/>
</linearGradient>
<linearGradient id="paint53_linear" x1="145.74" y1="355.251" x2="153.232" y2="327.897" gradientUnits="userSpaceOnUse">
<stop stop-color="#292376"/>
<stop offset="1" stop-color="#5D278F" stop-opacity="0.01"/>
</linearGradient>
<linearGradient id="paint54_linear" x1="105.222" y1="319.347" x2="97.0021" y2="319.347" gradientUnits="userSpaceOnUse">
<stop stop-color="#00A8FF"/>
<stop offset="1" stop-color="#1FEAEC"/>
</linearGradient>
<linearGradient id="paint55_linear" x1="130.722" y1="319.744" x2="99.3621" y2="319.744" gradientUnits="userSpaceOnUse">
<stop stop-color="#E3D321"/>
<stop offset="1" stop-color="#FEF100"/>
</linearGradient>
<linearGradient id="paint56_linear" x1="99.3529" y1="343.833" x2="130.744" y2="343.833" gradientUnits="userSpaceOnUse">
<stop stop-color="#00B4D8"/>
<stop offset="1" stop-color="#023E8A"/>
</linearGradient>
<linearGradient id="paint57_linear" x1="154.08" y1="343.668" x2="146.147" y2="340.923" gradientUnits="userSpaceOnUse">
<stop stop-color="#5D278F"/>
<stop offset="1" stop-color="#292376"/>
</linearGradient>
<linearGradient id="paint58_linear" x1="150.212" y1="333.335" x2="123.492" y2="333.335" gradientUnits="userSpaceOnUse">
<stop stop-color="#5D278F"/>
<stop offset="1" stop-color="#292376"/>
</linearGradient>
<linearGradient id="paint59_linear" x1="143.156" y1="356.632" x2="156.712" y2="356.632" gradientUnits="userSpaceOnUse">
<stop stop-color="#00B4D8"/>
<stop offset="1" stop-color="#023E8A"/>
</linearGradient>
<linearGradient id="paint60_linear" x1="155.772" y1="357.01" x2="157.3" y2="354.38" gradientUnits="userSpaceOnUse">
<stop stop-color="#00B4D8"/>
<stop offset="1" stop-color="#023E8A"/>
</linearGradient>
<linearGradient id="paint61_linear" x1="158.202" y1="354.26" x2="154.972" y2="354.26" gradientUnits="userSpaceOnUse">
<stop stop-color="#5D278F"/>
<stop offset="1" stop-color="#292376"/>
</linearGradient>
<linearGradient id="paint62_linear" x1="124.072" y1="320.448" x2="107.312" y2="320.448" gradientUnits="userSpaceOnUse">
<stop stop-color="#5D278F"/>
<stop offset="1" stop-color="#292376"/>
</linearGradient>
<linearGradient id="paint63_linear" x1="120.132" y1="322.724" x2="107.312" y2="322.724" gradientUnits="userSpaceOnUse">
<stop stop-color="#5D278F"/>
<stop offset="1" stop-color="#292376"/>
</linearGradient>
<linearGradient id="paint64_linear" x1="124.082" y1="327.9" x2="120.132" y2="327.9" gradientUnits="userSpaceOnUse">
<stop stop-color="#5D278F"/>
<stop offset="1" stop-color="#292376"/>
</linearGradient>
<linearGradient id="paint65_linear" x1="165.786" y1="399.938" x2="269.349" y2="295.056" gradientUnits="userSpaceOnUse">
<stop stop-color="#292376"/>
<stop offset="1" stop-color="#5D278F" stop-opacity="0.01"/>
</linearGradient>
<linearGradient id="paint66_linear" x1="218.285" y1="417.024" x2="268.406" y2="299.052" gradientUnits="userSpaceOnUse">
<stop stop-color="#292376"/>
<stop offset="1" stop-color="#5D278F" stop-opacity="0.01"/>
</linearGradient>
<linearGradient id="paint67_linear" x1="162.277" y1="288.461" x2="214.607" y2="288.461" gradientUnits="userSpaceOnUse">
<stop stop-color="#292376"/>
<stop offset="1" stop-color="#5D278F"/>
</linearGradient>
<linearGradient id="paint68_linear" x1="160.167" y1="288.451" x2="214.197" y2="288.451" gradientUnits="userSpaceOnUse">
<stop stop-color="#5D278F"/>
<stop offset="1" stop-color="#292376"/>
</linearGradient>
<linearGradient id="paint69_linear" x1="211.777" y1="317.187" x2="264.107" y2="317.187" gradientUnits="userSpaceOnUse">
<stop stop-color="#292376"/>
<stop offset="1" stop-color="#5D278F"/>
</linearGradient>
<linearGradient id="paint70_linear" x1="209.667" y1="317.161" x2="263.697" y2="317.161" gradientUnits="userSpaceOnUse">
<stop stop-color="#5D278F"/>
<stop offset="1" stop-color="#292376"/>
</linearGradient>
<linearGradient id="paint71_linear" x1="160.957" y1="309.363" x2="175.757" y2="309.363" gradientUnits="userSpaceOnUse">
<stop stop-color="#023E8A"/>
<stop offset="1" stop-color="#00B4D8"/>
</linearGradient>
<linearGradient id="paint72_linear" x1="176.417" y1="312.352" x2="183.197" y2="312.352" gradientUnits="userSpaceOnUse">
<stop stop-color="#023E8A"/>
<stop offset="1" stop-color="#00B4D8"/>
</linearGradient>
<linearGradient id="paint73_linear" x1="188.257" y1="326.525" x2="204.147" y2="326.525" gradientUnits="userSpaceOnUse">
<stop stop-color="#023E8A"/>
<stop offset="1" stop-color="#00B4D8"/>
</linearGradient>
<linearGradient id="paint74_linear" x1="157.447" y1="329.784" x2="211.877" y2="329.784" gradientUnits="userSpaceOnUse">
<stop stop-color="#023E8A"/>
<stop offset="1" stop-color="#00B4D8"/>
</linearGradient>
<linearGradient id="paint75_linear" x1="157.017" y1="330.238" x2="209.067" y2="330.238" gradientUnits="userSpaceOnUse">
<stop stop-color="#00B4D8"/>
<stop offset="1" stop-color="#023E8A"/>
</linearGradient>
<linearGradient id="paint76_linear" x1="162.167" y1="308.607" x2="177.767" y2="308.607" gradientUnits="userSpaceOnUse">
<stop stop-color="#5D278F"/>
<stop offset="1" stop-color="#292376"/>
</linearGradient>
<linearGradient id="paint77_linear" x1="189.497" y1="325.826" x2="205.097" y2="325.826" gradientUnits="userSpaceOnUse">
<stop stop-color="#5D278F"/>
<stop offset="1" stop-color="#292376"/>
</linearGradient>
<linearGradient id="paint78_linear" x1="189.497" y1="316.761" x2="203.457" y2="316.761" gradientUnits="userSpaceOnUse">
<stop stop-color="white" stop-opacity="0.25"/>
<stop offset="1" stop-color="#DBF9EA" stop-opacity="0.01"/>
</linearGradient>
<linearGradient id="paint79_linear" x1="162.167" y1="301.23" x2="176.147" y2="301.23" gradientUnits="userSpaceOnUse">
<stop stop-color="white" stop-opacity="0.25"/>
<stop offset="1" stop-color="#DBF9EA" stop-opacity="0.01"/>
</linearGradient>
</defs>
</svg>
