<svg width="175" height="175" viewBox="0 0 175 175" fill="none" xmlns="http://www.w3.org/2000/svg">
<g id="Maintainance" clip-path="url(#clip0)">
<path id="Vector" d="M87.5 171.24C133.748 171.24 171.24 133.748 171.24 87.5C171.24 41.2515 133.748 3.75977 87.5 3.75977C41.2515 3.75977 3.75977 41.2515 3.75977 87.5C3.75977 133.748 41.2515 171.24 87.5 171.24Z" fill="#F24976"/>
<path id="Vector_2" d="M102.802 131.158H72.2012V146.344H102.802V131.158Z" fill="#445EA0"/>
<path id="Vector_3" d="M78.9831 131.158H72.2012V146.344H78.9831V131.158Z" fill="#2E4C89"/>
<path id="Vector_4" d="M117.953 155.106C117.953 155.938 117.272 156.62 116.44 156.62H58.5604C57.7278 156.62 57.0463 155.938 57.0463 155.106V147.517C57.0463 146.684 57.7278 146.002 58.5604 146.002H116.439C117.272 146.002 117.953 146.684 117.953 147.517V155.106H117.953Z" fill="#293D7C"/>
<path id="Vector_5" d="M63.8286 155.106V147.517C63.8286 146.684 64.5101 146.002 65.3427 146.002H58.5608C57.7282 146.002 57.0466 146.684 57.0466 147.517V155.106C57.0466 155.938 57.7282 156.62 58.5608 156.62H65.3427C64.5098 156.62 63.8286 155.937 63.8286 155.106Z" fill="#1A2B63"/>
<path id="Vector_6" d="M173.017 14.6519H1.98345C0.892432 14.6519 0 15.5446 0 16.636V129.516C0 130.606 0.892432 131.499 1.98345 131.499H119.721V125.571C119.721 124.967 120.211 124.476 120.815 124.476H125.425C126.366 124.476 127.346 123.779 127.655 122.89L128.526 120.798C128.935 119.972 128.738 118.789 128.068 118.125L124.814 114.897C124.609 114.693 124.495 114.42 124.495 114.128C124.495 113.837 124.609 113.563 124.815 113.359L130.714 107.505C130.921 107.3 131.198 107.187 131.493 107.187C131.789 107.187 132.066 107.3 132.272 107.505L135.525 110.733C135.942 111.146 136.585 111.394 137.246 111.394C137.602 111.394 137.941 111.32 138.227 111.181L140.346 110.312C141.219 110.015 141.918 109.037 141.918 108.095V103.543C141.918 102.939 142.409 102.448 143.012 102.448H151.365C151.969 102.448 152.46 102.939 152.46 103.543V108.095C152.46 109.038 153.158 110.015 154.05 110.32L156.172 111.19C156.437 111.32 156.777 111.394 157.132 111.394C157.793 111.394 158.436 111.147 158.853 110.733L162.106 107.505C162.313 107.3 162.59 107.187 162.885 107.187C163.18 107.187 163.457 107.3 163.664 107.505L169.562 113.359C169.768 113.564 169.882 113.837 169.882 114.129C169.882 114.42 169.768 114.693 169.562 114.898L166.31 118.126C165.64 118.789 165.443 119.972 165.861 120.819L166.73 122.909C167.031 123.779 168.011 124.476 168.953 124.476H173.562C174.166 124.476 174.657 124.967 174.657 125.571V130.626C174.873 130.308 174.999 129.926 174.999 129.516V16.636C175 15.5446 174.108 14.6519 173.017 14.6519Z" fill="#293D7C"/>
<path id="Vector_7" d="M8.70654 111.665C8.70654 112.32 9.24214 112.855 9.89668 112.855H125.322L130.715 107.505C130.921 107.299 131.198 107.186 131.494 107.186C131.789 107.186 132.066 107.299 132.273 107.505L135.526 110.732C135.942 111.146 136.586 111.393 137.246 111.393C137.602 111.393 137.941 111.319 138.227 111.18L140.347 110.312C141.219 110.014 141.918 109.037 141.918 108.095V103.542C141.918 102.938 142.409 102.447 143.013 102.447H151.366C151.969 102.447 152.46 102.939 152.46 103.542V108.095C152.46 109.037 153.159 110.014 154.051 110.319L156.172 111.19C156.438 111.32 156.777 111.393 157.132 111.393C157.793 111.393 158.436 111.146 158.853 110.733L162.107 107.505C162.313 107.3 162.59 107.186 162.885 107.186C163.181 107.186 163.457 107.3 163.664 107.505L166.293 110.114V34.1499H8.70654V111.665Z" fill="white"/>
<path id="Vector_8" d="M15.4885 111.665V34.1499H8.70654V111.665C8.70654 112.32 9.24214 112.855 9.89668 112.855H16.6786C16.0241 112.856 15.4885 112.32 15.4885 111.665Z" fill="#D9EAFC"/>
<g id="Group">
<path id="Vector_9" d="M85.3177 86.6564C82.1978 83.5365 77.6334 82.7237 73.7574 84.2125L60.6806 71.1357L58.0519 73.7645C57.9791 73.8373 57.9428 73.9392 57.9534 74.0417C58.0331 74.8125 57.8222 75.5729 57.3594 76.1831C57.2732 76.2965 57.2664 76.4514 57.3423 76.572C58.0707 77.7287 57.9927 79.1355 57.1663 80.0358L67.5501 90.4196C66.0608 94.2952 66.8736 98.8602 69.9939 101.981C72.6948 104.681 76.5167 105.753 80.2174 104.848C80.3165 104.824 80.4054 104.772 80.4748 104.703C80.54 104.637 80.5896 104.555 80.6149 104.463C80.6686 104.272 80.6149 104.067 80.4748 103.927L73.8042 97.2559L80.5927 90.4671L87.2635 97.1386C87.4037 97.2781 87.6084 97.3324 87.7991 97.2787C87.8918 97.2528 87.9741 97.2039 88.0394 97.1386C88.1091 97.0686 88.1601 96.98 88.1843 96.8802C89.0908 93.1792 88.0189 89.3576 85.3177 86.6564Z" fill="#FF9518"/>
<path id="Vector_10" d="M50.9031 71.3187C51.4886 71.3187 52.0704 71.4903 52.5862 71.815C52.6419 71.8502 52.7051 71.8673 52.7683 71.8673C52.8411 71.8673 52.9139 71.844 52.9751 71.7979C53.5008 71.3987 54.1318 71.1881 54.7996 71.1881C54.9052 71.1881 55.0112 71.1936 55.1165 71.2045C55.1281 71.2056 55.1401 71.2063 55.1517 71.2063C55.2419 71.2063 55.3291 71.1704 55.3933 71.1061L58.0224 68.477L44.9456 55.4005C46.4345 51.5246 45.6217 46.9599 42.5018 43.8403C39.8006 41.1391 35.9789 40.0669 32.2783 40.9726C32.1788 40.9972 32.0906 41.0482 32.0209 41.1175C31.9553 41.1828 31.9061 41.2652 31.8801 41.3582C31.8268 41.5492 31.8804 41.7536 32.0209 41.8938L38.6914 48.5643L31.9027 55.3534L25.2318 48.6822C25.092 48.5421 24.8869 48.4887 24.6962 48.5421C24.6039 48.5673 24.5216 48.6166 24.4563 48.6822C24.3862 48.7519 24.3353 48.8404 24.311 48.9399C23.4053 52.6402 24.4775 56.4625 27.178 59.163C30.2983 62.2833 34.8626 63.0961 38.7389 61.6072L49.1231 71.9914C49.5948 71.5583 50.2216 71.3187 50.9031 71.3187Z" fill="#FF9518"/>
</g>
<path id="Vector_11" d="M87.5 127.496C90.4574 127.496 92.8549 125.099 92.8549 122.141C92.8549 119.184 90.4574 116.786 87.5 116.786C84.5425 116.786 82.145 119.184 82.145 122.141C82.145 125.099 84.5425 127.496 87.5 127.496Z" fill="#445EA0"/>
<path id="Vector_12" d="M165.104 24.7671H9.89668C9.24214 24.7671 8.70654 25.3023 8.70654 25.9572V34.4919H166.293V25.9572C166.293 25.3023 165.758 24.7671 165.104 24.7671Z" fill="#5DC1D8"/>
<path id="Vector_13" d="M16.6786 24.7671H9.89668C9.24214 24.7671 8.70654 25.3023 8.70654 25.9572V34.4919H15.4885V25.9572C15.4885 25.3023 16.0241 24.7671 16.6786 24.7671Z" fill="#28A5A5"/>
<path id="Vector_14" d="M141.576 155.867C141.576 156.657 142.223 157.303 143.013 157.303H151.366C152.156 157.303 152.802 156.656 152.802 155.867V151.315C152.802 150.525 153.414 149.669 154.161 149.413L156.302 148.536C157.013 148.19 158.053 148.362 158.613 148.919L161.867 152.147C162.427 152.703 163.344 152.703 163.905 152.147L169.804 146.293C170.365 145.736 170.365 144.825 169.804 144.269L166.552 141.041C165.99 140.485 165.818 139.45 166.169 138.741L167.046 136.631C167.306 135.885 168.164 135.274 168.954 135.274H173.563C174.354 135.274 175 134.628 175 133.838V125.57C175 124.78 174.354 124.134 173.563 124.134H168.954C168.164 124.134 167.306 123.523 167.046 122.777L166.169 120.667C165.819 119.958 165.99 118.923 166.552 118.367L169.804 115.139C170.365 114.583 170.365 113.672 169.804 113.116L163.905 107.262C163.344 106.705 162.427 106.705 161.867 107.262L158.613 110.489C158.052 111.045 157.012 111.218 156.302 110.872L154.161 109.995C153.414 109.74 152.802 108.884 152.802 108.094V103.542C152.802 102.751 152.155 102.105 151.366 102.105H143.013C142.222 102.105 141.576 102.752 141.576 103.542V108.094C141.576 108.884 140.965 109.739 140.217 109.995L138.077 110.872C137.368 111.218 136.327 111.046 135.766 110.489L132.513 107.262C131.952 106.705 131.034 106.705 130.473 107.262L124.573 113.116C124.013 113.672 124.013 114.582 124.573 115.139L127.827 118.367C128.388 118.923 128.56 119.958 128.21 120.667L127.332 122.777C127.072 123.523 126.214 124.134 125.424 124.134H120.815C120.024 124.134 119.378 124.78 119.378 125.57V133.838C119.378 134.628 120.025 135.274 120.815 135.274H125.424C126.215 135.274 127.072 135.885 127.332 136.631L128.21 138.742C128.56 139.449 128.389 140.485 127.828 141.041L124.573 144.269C124.013 144.825 124.013 145.736 124.573 146.293L130.473 152.147C131.034 152.703 131.952 152.703 132.513 152.147L135.765 148.919C136.326 148.362 137.366 148.19 138.076 148.536L140.217 149.413C140.965 149.669 141.576 150.525 141.576 151.315V155.867Z" fill="#FF9518"/>
<path id="Vector_15" d="M147.189 142.988C139.797 142.988 133.805 137.041 133.805 129.705C133.805 122.368 139.797 116.422 147.189 116.422C154.582 116.422 160.574 122.368 160.574 129.704C160.574 137.041 154.582 142.988 147.189 142.988Z" fill="#FFAF10"/>
<path id="Vector_16" d="M137.877 129.705C137.877 123.055 142.799 117.547 149.225 116.574C148.562 116.473 147.881 116.422 147.189 116.422C139.797 116.422 133.805 122.368 133.805 129.705C133.805 137.041 139.797 142.987 147.189 142.987C147.881 142.987 148.562 142.935 149.225 142.835C142.799 141.861 137.877 136.354 137.877 129.705Z" fill="#FF9518"/>
<path id="Vector_17" d="M147.189 145.143C138.621 145.143 131.65 138.217 131.65 129.705C131.65 121.193 138.622 114.267 147.189 114.267C155.758 114.267 162.729 121.193 162.729 129.704C162.729 138.217 155.758 145.143 147.189 145.143ZM147.189 118.576C140.998 118.576 135.96 123.568 135.96 129.705C135.96 135.841 140.997 140.834 147.189 140.834C153.382 140.834 158.419 135.841 158.42 129.704C158.42 123.568 153.382 118.576 147.189 118.576Z" fill="#DB722C"/>
<path id="Vector_18" d="M147.189 135.32C144.064 135.32 141.531 132.805 141.531 129.705C141.531 126.603 144.064 124.089 147.189 124.089C150.315 124.089 152.847 126.602 152.847 129.704C152.847 132.805 150.315 135.32 147.189 135.32Z" fill="#FFAF10"/>
<path id="Vector_19" d="M145.603 129.705C145.603 127.316 147.107 125.282 149.225 124.47C148.593 124.228 147.908 124.089 147.189 124.089C144.064 124.089 141.531 126.602 141.531 129.705C141.531 132.805 144.064 135.32 147.189 135.32C147.908 135.32 148.593 135.182 149.225 134.939C147.107 134.127 145.603 132.093 145.603 129.705Z" fill="#FF9518"/>
<path id="Vector_20" d="M147.189 137.474C142.882 137.474 139.377 133.989 139.377 129.705C139.377 125.42 142.882 121.935 147.189 121.935C151.498 121.935 155.002 125.42 155.002 129.704C155.001 133.989 151.497 137.474 147.189 137.474ZM147.189 126.244C145.258 126.244 143.686 127.796 143.686 129.705C143.686 131.612 145.258 133.165 147.189 133.165C149.121 133.165 150.692 131.612 150.692 129.704C150.692 127.797 149.121 126.244 147.189 126.244Z" fill="#DB722C"/>
<g id="Group_2">
<path id="Vector_21" d="M48.0022 77.4541L51.7036 81.1554C52.0108 81.4627 52.2385 81.8202 52.3882 82.2013L53.9919 80.5976C53.6145 80.4335 53.2625 80.197 52.9624 79.8966L49.2611 76.1956C48.9538 75.888 48.7197 75.5373 48.5583 75.1675L46.9553 76.7705C47.3436 76.9226 47.6998 77.152 48.0022 77.4541Z" fill="#445EA0"/>
<path id="Vector_22" d="M86.3836 44.6938L84.4637 42.7739C84.2501 42.5606 83.8536 42.4943 83.5826 42.6262L79.3047 44.7139C79.0333 44.8462 78.7031 45.1764 78.5712 45.4474L76.6691 49.3463L55.1509 70.8645C54.2021 70.766 53.2256 71.0658 52.4921 71.7586C52.7378 71.9022 52.9692 72.0758 53.1746 72.2812L56.876 75.9822C57.0851 76.1914 57.2588 76.4214 57.4006 76.663C58.0924 75.9296 58.3915 74.9541 58.2934 74.0063L79.8105 52.4891L83.7104 50.5867C83.9818 50.4544 84.312 50.1242 84.4439 49.8532L86.5313 45.5749C86.6635 45.3039 86.5966 44.9074 86.3836 44.6938Z" fill="#445EA0"/>
</g>
<path id="Vector_23" d="M57.336 80.3564C56.1268 81.5657 54.05 81.4676 52.7208 80.138L49.0194 76.437C47.6902 75.1075 47.5918 73.0307 48.801 71.8214C50.0103 70.6121 52.0871 70.7102 53.4163 72.0398L57.1176 75.7408C58.4469 77.0701 58.5453 79.1468 57.336 80.3564Z" fill="#293D7C"/>
<g id="Group_3">
<path id="Vector_24" d="M147.12 50.5801H102.047C100.631 50.5801 99.4834 49.4327 99.4834 48.0166C99.4834 46.6005 100.631 45.4531 102.047 45.4531H147.12C148.536 45.4531 149.683 46.6005 149.683 48.0166C149.684 49.4327 148.536 50.5801 147.12 50.5801Z" fill="#69CDFF"/>
<path id="Vector_25" d="M147.12 58.95H102.047C100.631 58.95 99.4834 57.8025 99.4834 56.3865C99.4834 54.9704 100.631 53.823 102.047 53.823H147.12C148.536 53.823 149.683 54.9704 149.683 56.3865C149.684 57.8022 148.536 58.95 147.12 58.95Z" fill="#69CDFF"/>
<path id="Vector_26" d="M147.12 67.3196H102.047C100.631 67.3196 99.4834 66.1722 99.4834 64.7561C99.4834 63.34 100.631 62.1926 102.047 62.1926H147.12C148.536 62.1926 149.683 63.34 149.683 64.7561C149.684 66.1722 148.536 67.3196 147.12 67.3196Z" fill="#69CDFF"/>
</g>
<g id="Group_4">
<path id="Vector_27" d="M147.12 81.3406H102.047C100.631 81.3406 99.4834 80.1932 99.4834 78.7771C99.4834 77.361 100.631 76.2136 102.047 76.2136H147.12C148.536 76.2136 149.683 77.361 149.683 78.7771C149.683 80.1932 148.536 81.3406 147.12 81.3406Z" fill="#37C47A"/>
<path id="Vector_28" d="M147.12 89.7102H102.047C100.631 89.7102 99.4834 88.5628 99.4834 87.1467C99.4834 85.7307 100.631 84.5833 102.047 84.5833H147.12C148.536 84.5833 149.683 85.7307 149.683 87.1467C149.684 88.5625 148.536 89.7102 147.12 89.7102Z" fill="#37C47A"/>
<path id="Vector_29" d="M124.443 98.0796H102.047C100.631 98.0796 99.4834 96.9322 99.4834 95.5161C99.4834 94.1 100.631 92.9526 102.047 92.9526H124.443C125.859 92.9526 127.007 94.1 127.007 95.5161C127.007 96.9322 125.859 98.0796 124.443 98.0796Z" fill="#37C47A"/>
</g>
<path id="Vector_30" d="M36.0882 101.605C34.7589 102.934 32.5838 102.934 31.2542 101.605L27.5528 97.9038C26.2236 96.5742 26.2236 94.3993 27.5528 93.0698L43.4102 77.2128C44.7394 75.8832 46.9146 75.8832 48.2439 77.2128L51.9452 80.9141C53.2744 82.2433 53.2744 84.4185 51.9452 85.7481L36.0882 101.605Z" fill="#293D7C"/>
<g id="Group_5">
<path id="Vector_31" d="M33.3097 97.9036C31.9805 96.5741 31.9805 94.3992 33.3097 93.0696L48.7053 77.674L48.2439 77.2123C46.9146 75.8827 44.7394 75.8827 43.4102 77.2123L27.5528 93.0693C26.2236 94.3989 26.2236 96.5737 27.5528 97.9033L31.2542 101.604C32.5834 102.934 34.7586 102.934 36.0882 101.604L36.5496 101.143L33.3097 97.9036Z" fill="#1A2B63"/>
<path id="Vector_32" d="M51.0227 74.0431C52.232 72.8338 54.3087 72.9319 55.638 74.2615L53.4163 72.0398C52.0871 70.7102 50.01 70.6121 48.801 71.8214C47.5921 73.0307 47.6902 75.1075 49.0194 76.437L51.2401 78.6574C49.9119 77.3281 49.8141 75.252 51.0227 74.0431Z" fill="#1A2B63"/>
</g>
</g>
<defs>
<clipPath id="clip0">
<rect width="175" height="175" fill="white"/>
</clipPath>
</defs>
</svg>
