<svg width="175" height="175" viewBox="0 0 175 175" fill="none" xmlns="http://www.w3.org/2000/svg">
<path d="M91.2598 171.24C137.508 171.24 175 133.748 175 87.5C175 41.2515 137.508 3.75977 91.2598 3.75977C45.0113 3.75977 7.51953 41.2515 7.51953 87.5C7.51953 133.748 45.0113 171.24 91.2598 171.24Z" fill="#69CDFF"/>
<path d="M90.3813 122.544H63.4785V136.637H90.3813V122.544Z" fill="#445EA0"/>
<path d="M70.2604 122.544H63.4785V136.637H70.2604V122.544Z" fill="#2E4C89"/>
<path d="M108.3 136.296H43.5996C42.6405 136.296 41.8561 137.081 41.8561 138.04V146.78C41.8561 147.739 42.6408 148.524 43.5996 148.524H108.3V136.296Z" fill="#293D7C"/>
<path d="M48.638 146.78V138.04C48.638 137.08 49.4228 136.296 50.3819 136.296H43.5996C42.6405 136.296 41.8561 137.08 41.8561 138.04V146.78C41.8561 147.739 42.6408 148.523 43.5996 148.523H50.3815C49.4228 148.523 48.638 147.739 48.638 146.78Z" fill="#1A2B63"/>
<path d="M152.118 20.1537H1.74385C0.784766 20.1537 0 20.9385 0 21.8975V121.143C0 122.102 0.784766 122.887 1.74385 122.887H108.3V70.6726C108.3 69.3536 109.374 68.2801 110.693 68.2801H153.862V21.8975C153.862 20.9385 153.077 20.1537 152.118 20.1537Z" fill="#293D7C"/>
<path d="M7.65491 105.449C7.65491 106.025 8.12556 106.495 8.70115 106.495H108.3V70.6726C108.3 69.3536 109.374 68.28 110.693 68.28H146.207V37.2551H7.65491V105.449Z" fill="white"/>
<path d="M14.4372 105.449V37.2551H7.65491V105.449C7.65491 106.025 8.12556 106.495 8.70115 106.495H15.4834C14.9078 106.495 14.4372 106.024 14.4372 105.449Z" fill="#D9EAFC"/>
<path d="M76.9317 119.367C79.5318 119.367 81.6396 117.259 81.6396 114.659C81.6396 112.059 79.5318 109.951 76.9317 109.951C74.3316 109.951 72.2238 112.059 72.2238 114.659C72.2238 117.259 74.3316 119.367 76.9317 119.367Z" fill="#445EA0"/>
<path d="M108.3 76.2705H90.0403C89.4763 76.2705 89.0149 76.7319 89.0149 77.2959V97.6803C89.0149 98.2443 89.4763 98.7057 90.0403 98.7057H108.3V76.2705Z" fill="#C3DDF4"/>
<path d="M95.7967 97.6803V77.2959C95.7967 76.7319 96.2582 76.2705 96.8221 76.2705H90.0403C89.4763 76.2705 89.0149 76.7319 89.0149 77.2959V97.6803C89.0149 98.2443 89.4763 98.7057 90.0403 98.7057H96.8221C96.2582 98.7057 95.7967 98.2443 95.7967 97.6803Z" fill="#AEC1ED"/>
<path d="M110.693 68.28H126.627V45.9326C126.627 44.9927 125.858 44.2236 124.918 44.2236H28.9441C28.0041 44.2236 27.2351 44.9927 27.2351 45.9326V68.6707C27.2351 69.6106 28.0041 70.3796 28.9441 70.3796H108.321C108.465 69.1984 109.473 68.28 110.693 68.28Z" fill="#C3DDF4"/>
<path d="M34.017 68.6704V45.9324C34.017 44.9924 34.7861 44.2234 35.726 44.2234H28.9441C28.0041 44.2234 27.2351 44.9924 27.2351 45.9324V68.6704C27.2351 69.6104 28.0041 70.3794 28.9441 70.3794H35.726C34.7861 70.3794 34.017 69.6104 34.017 68.6704Z" fill="#AEC1ED"/>
<path d="M145.161 29.0469H8.70115C8.12556 29.0469 7.65491 29.5175 7.65491 30.0935V37.5969H146.207V30.0935C146.207 29.5175 145.736 29.0469 145.161 29.0469Z" fill="#FFAF10"/>
<path d="M15.4834 29.0469H8.70115C8.12556 29.0469 7.65491 29.5175 7.65491 30.0935V37.5969H14.4368V30.0935C14.4372 29.5175 14.9078 29.0469 15.4834 29.0469Z" fill="#FF9518"/>
<path d="M58.6195 81.6824H29.8505C28.4347 81.6824 27.287 80.535 27.287 79.1189C27.287 77.7028 28.4347 76.5554 29.8505 76.5554H58.6195C60.0352 76.5554 61.183 77.7028 61.183 79.1189C61.183 80.535 60.0352 81.6824 58.6195 81.6824Z" fill="#5DC1D8"/>
<path d="M58.6195 90.052H29.8505C28.4347 90.052 27.287 88.9046 27.287 87.4885C27.287 86.0725 28.4347 84.925 29.8505 84.925H58.6195C60.0352 84.925 61.183 86.0725 61.183 87.4885C61.183 88.9042 60.0352 90.052 58.6195 90.052Z" fill="#5DC1D8"/>
<path d="M58.6195 98.4214H29.8505C28.4347 98.4214 27.287 97.274 27.287 95.8579C27.287 94.4418 28.4347 93.2944 29.8505 93.2944H58.6195C60.0352 93.2944 61.183 94.4418 61.183 95.8579C61.183 97.274 60.0352 98.4214 58.6195 98.4214Z" fill="#5DC1D8"/>
<path d="M81.1972 81.6824H66.3886C64.9728 81.6824 63.8251 80.535 63.8251 79.1189C63.8251 77.7028 64.9728 76.5554 66.3886 76.5554H81.1972C82.613 76.5554 83.7607 77.7028 83.7607 79.1189C83.7607 80.535 82.613 81.6824 81.1972 81.6824Z" fill="#5DC1D8"/>
<path d="M81.1972 90.052H66.3886C64.9728 90.052 63.8251 88.9046 63.8251 87.4885C63.8251 86.0725 64.9728 84.925 66.3886 84.925H81.1972C82.613 84.925 83.7607 86.0725 83.7607 87.4885C83.7607 88.9042 82.613 90.052 81.1972 90.052Z" fill="#5DC1D8"/>
<path d="M81.1972 98.4214H66.3886C64.9728 98.4214 63.8251 97.274 63.8251 95.8579C63.8251 94.4418 64.9728 93.2944 66.3886 93.2944H81.1972C82.613 93.2944 83.7607 94.4418 83.7607 95.8579C83.7607 97.274 82.613 98.4214 81.1972 98.4214Z" fill="#5DC1D8"/>
<path d="M172.266 67.9382C173.77 67.9382 175 69.1687 175 70.6726V153.309C175 154.813 173.77 156.043 172.266 156.043H110.693C109.189 156.043 107.959 154.813 107.959 153.309V70.6726C107.959 69.1687 109.189 67.9382 110.693 67.9382H172.266Z" fill="#445EA0"/>
<path d="M115.379 145.306C114.439 145.306 113.67 144.537 113.67 143.597V74.915C113.67 73.9751 114.439 73.2061 115.379 73.2061H167.58C168.52 73.2061 169.289 73.9751 169.289 74.915V143.597C169.289 144.537 168.52 145.306 167.58 145.306H115.379Z" fill="white"/>
<path d="M120.452 143.597V74.915C120.452 73.9751 121.221 73.2061 122.161 73.2061H115.379C114.439 73.2061 113.67 73.9751 113.67 74.915V143.597C113.67 144.537 114.439 145.306 115.379 145.306H122.161C121.221 145.306 120.452 144.537 120.452 143.597Z" fill="#D9EAFC"/>
<path d="M138.28 152.142C137.34 152.142 136.571 151.373 136.571 150.433V149.769C136.571 148.829 137.34 148.06 138.28 148.06H144.679C145.619 148.06 146.388 148.829 146.388 149.769V150.433C146.388 151.373 145.619 152.142 144.679 152.142H138.28Z" fill="#445EA0"/>
<path d="M169.289 79.8004V74.915C169.289 73.9751 168.52 73.2061 167.58 73.2061H115.379C114.439 73.2061 113.67 73.9751 113.67 74.915V79.8004H169.289Z" fill="#FFAF10"/>
<path d="M122.161 73.2061H115.379C114.439 73.2061 113.67 73.9751 113.67 74.915V79.8004H120.452V74.915C120.452 73.9751 121.221 73.2061 122.161 73.2061Z" fill="#FF9518"/>
<path d="M153.129 111.061H129.829C128.414 111.061 127.266 109.914 127.266 108.498C127.266 107.081 128.414 105.934 129.829 105.934H153.129C154.545 105.934 155.693 107.081 155.693 108.498C155.693 109.913 154.545 111.061 153.129 111.061Z" fill="#5DC1D8"/>
<path d="M153.129 118.966H129.829C128.414 118.966 127.266 117.818 127.266 116.402C127.266 114.987 128.414 113.839 129.829 113.839H153.129C154.545 113.839 155.693 114.987 155.693 116.402C155.693 117.818 154.545 118.966 153.129 118.966Z" fill="#5DC1D8"/>
<path d="M153.129 126.87H129.829C128.414 126.87 127.266 125.722 127.266 124.306C127.266 122.891 128.414 121.743 129.829 121.743H153.129C154.545 121.743 155.693 122.891 155.693 124.306C155.693 125.722 154.545 126.87 153.129 126.87Z" fill="#5DC1D8"/>
<path d="M163.979 99.8924C163.979 100.832 163.21 101.601 162.27 101.601H120.689C119.749 101.601 118.98 100.832 118.98 99.8924V85.7954C118.98 84.8555 119.749 84.0864 120.689 84.0864H162.27C163.21 84.0864 163.979 84.8555 163.979 85.7954V99.8924Z" fill="#C3DDF4"/>
<path d="M125.762 99.8924V85.7954C125.762 84.8555 126.531 84.0864 127.471 84.0864H120.689C119.749 84.0864 118.98 84.8555 118.98 85.7954V99.8924C118.98 100.832 119.749 101.601 120.689 101.601H127.471C126.531 101.601 125.762 100.832 125.762 99.8924Z" fill="#AEC1ED"/>
<path d="M157.827 139.937C157.827 140.877 157.058 141.646 156.118 141.646H126.841C125.901 141.646 125.132 140.877 125.132 139.937V134.157C125.132 133.217 125.901 132.448 126.841 132.448H156.118C157.058 132.448 157.827 133.217 157.827 134.157V139.937Z" fill="#C3DDF4"/>
<path d="M131.914 139.937V134.157C131.914 133.217 132.683 132.448 133.623 132.448H126.841C125.901 132.448 125.132 133.217 125.132 134.157V139.937C125.132 140.877 125.901 141.646 126.841 141.646H133.623C132.683 141.646 131.914 140.877 131.914 139.937Z" fill="#AEC1ED"/>
</svg>
