<svg width="17" height="14" viewBox="0 0 17 14" fill="none" xmlns="http://www.w3.org/2000/svg">
<path fill-rule="evenodd" clip-rule="evenodd" d="M15.2602 3.48683C15.2663 3.63859 15.2699 3.79124 15.2699 3.94478C15.2699 8.61532 11.762 14 5.34719 14C3.37745 14 1.54425 13.4153 0 12.4128C0.273085 12.4449 0.550575 12.4619 0.83247 12.4619C2.46658 12.4619 3.97031 11.8968 5.16395 10.9488C3.63732 10.9202 2.34941 9.89811 1.90631 8.49391C2.11861 8.53587 2.33708 8.55818 2.56172 8.55818C2.87973 8.55818 3.18805 8.51444 3.48052 8.4341C1.88517 8.10916 0.683594 6.68086 0.683594 4.96869C0.683594 4.95352 0.683594 4.93834 0.683594 4.92406C1.15401 5.18829 1.69137 5.34719 2.26308 5.36594C1.32755 4.73213 0.711784 3.65019 0.711784 2.42454C0.711784 1.77645 0.883563 1.16942 1.18396 0.647198C2.90439 2.78518 5.47404 4.19295 8.37227 4.34024C8.31324 4.08136 8.28241 3.81177 8.28241 3.53415C8.28241 1.58273 9.8434 0 11.77 0C12.7733 0 13.6798 0.429382 14.3158 1.11675C15.1104 0.957852 15.8566 0.664159 16.5305 0.258879C16.2706 1.08372 15.7174 1.77645 14.9968 2.21386C15.7024 2.12906 16.3745 1.93891 17 1.65772C16.5322 2.36651 15.9411 2.98871 15.2602 3.48683Z" fill="white"/>
</svg>
